<svg width="170" height="170" viewBox="0 0 170 170" fill="none" xmlns="http://www.w3.org/2000/svg">
<ellipse cx="84.885" cy="84.8864" rx="84.885" ry="84.8864" fill="#010101"/>
<g clip-path="url(#clip0_1493_3152)">
<path d="M156.47 77.3311L156.681 77.3226L156.791 80.044L156.58 80.0524C156.573 79.8904 156.547 79.2425 155.559 79.282L149.242 79.5347C147.379 79.6092 145.963 81.1098 146.036 82.924C146.114 84.8516 147.564 86.2051 149.508 86.1274L155.826 85.8747C156.814 85.8352 156.787 85.1872 156.781 85.0252L156.991 85.0168L157.078 87.155L156.867 87.1634C156.861 87.0014 156.835 86.3535 155.846 86.393L149.529 86.6457C147.164 86.7403 145.344 85.0609 145.248 82.6959C145.157 80.4282 146.913 78.5246 149.197 78.4332L155.515 78.1805C156.503 78.141 156.477 77.4931 156.47 77.3311Z" fill="#F1F1F0"/>
<path d="M155.671 96.3342L155.879 96.3594L155.62 98.4694L155.413 98.4442C155.432 98.2844 155.51 97.645 154.535 97.5268L144.399 96.2982L144.423 96.1063L155.288 90.4478L146.447 89.3761C145.472 89.2579 145.396 89.8813 145.374 90.0572L145.166 90.032L145.425 87.9219L145.633 87.9471C145.613 88.107 145.535 88.7464 146.51 88.8646L155.479 89.9517C156.438 90.068 156.516 89.4286 156.536 89.2688L156.744 89.2939L156.521 91.1163L146.876 96.0792L154.598 97.0152C155.573 97.1335 155.651 96.494 155.671 96.3342Z" fill="#F1F1F0"/>
<path d="M142.33 104.635L144.196 97.794L144.399 97.8494C144.357 98.0055 144.186 98.6302 145.139 98.8901L153.885 101.276C154.838 101.536 155.008 100.911 155.051 100.755L155.254 100.811L154.538 103.434L154.335 103.379C154.378 103.223 154.544 102.614 153.607 102.358L144.127 99.7718L143.249 102.989C142.836 104.504 144.93 105.377 146.185 105.82L146.13 106.023L142.33 104.635Z" fill="#F1F1F0"/>
<path d="M139.311 112.017L142.108 105.343L142.303 105.424C142.24 105.574 141.99 106.171 142.9 106.553L151.261 110.057C152.172 110.439 152.422 109.842 152.485 109.692L152.679 109.774L149.944 116.298L148.051 115.873L148.133 115.679C148.648 115.79 149.589 115.973 149.983 115.033L151.522 111.36L148.492 110.09L147.14 113.315C146.733 114.285 147.198 114.392 147.505 114.538L147.423 114.732L145.512 113.931L145.594 113.737C145.899 113.848 146.315 114.11 146.722 113.139L148.074 109.915L141.788 107.28L140.436 110.505C139.829 111.953 141.792 113.092 142.979 113.694L142.897 113.889L139.311 112.017Z" fill="#F1F1F0"/>
<path d="M146.049 123.333L135.528 120.935C134.593 120.73 134.15 121.276 134.066 121.415L133.886 121.306L135.542 118.562L135.722 118.67C135.354 119.28 135.481 119.697 136.122 119.857L139.879 120.744L141.844 117.487L139.367 114.479C138.935 113.973 138.508 114.055 138.14 114.665L137.959 114.556L139.231 112.449L139.411 112.558C139.327 112.697 138.993 113.251 139.668 114.075L145.799 121.461C146.441 122.246 146.965 121.409 147.049 121.27L147.229 121.379L146.049 123.333ZM145.689 122.114L142.171 117.854L140.356 120.862L145.689 122.114Z" fill="#F1F1F0"/>
<path d="M134.485 122.245L136.843 123.911L136.709 124.073C134.488 122.9 132.793 122.943 131.719 124.238C130.997 125.109 130.424 126.611 131.631 127.614C132.915 128.701 134.596 128.143 136.244 127.473C137.793 126.846 139.464 126.3 140.509 127.169C141.815 128.254 141.674 129.946 140.415 131.465C139.754 132.262 138.82 132.958 137.731 133.105L136.063 131.949L136.197 131.788C137.525 132.492 139.096 132.346 140.066 131.175C140.789 130.304 141.076 129.07 140.069 128.233C139.098 127.426 137.746 127.943 136.278 128.573C134.644 129.277 132.662 129.943 131.406 128.899C129.677 127.462 130.184 125.38 131.371 123.948C132.145 123.014 133.193 122.434 134.485 122.245Z" fill="#F1F1F0"/>
<path d="M126.659 129.244L128.665 127.431L128.805 127.586C128.686 127.694 128.208 128.125 128.867 128.853L134.917 135.535C135.576 136.263 136.054 135.831 136.173 135.724L136.314 135.879L134.308 137.692L134.167 137.537C134.287 137.429 134.764 136.997 134.105 136.269L132.312 134.289L128.228 137.981L130.022 139.961C130.681 140.689 131.158 140.257 131.278 140.15L131.418 140.305L129.412 142.118L129.272 141.963C129.391 141.855 129.869 141.423 129.21 140.695L123.16 134.013C122.501 133.286 122.023 133.717 121.904 133.825L121.763 133.67L123.769 131.857L123.91 132.012C123.79 132.12 123.313 132.551 123.972 133.279L127.926 137.647L132.009 133.955L128.055 129.587C127.396 128.86 126.919 129.291 126.799 129.399L126.659 129.244Z" fill="#F1F1F0"/>
<path d="M112.319 139.683L118.544 136.021L118.651 136.202C118.512 136.284 117.955 136.611 118.457 137.459L123.072 145.241C123.575 146.088 124.132 145.761 124.271 145.679L124.378 145.859L118.293 149.439L117.028 147.971L117.209 147.865C117.556 148.26 118.201 148.968 119.079 148.452L122.504 146.437L120.831 143.616L117.823 145.385C116.918 145.918 117.227 146.28 117.386 146.58L117.205 146.686L116.15 144.908L116.331 144.801C116.51 145.071 116.688 145.529 117.593 144.996L120.601 143.227L117.131 137.377L114.123 139.146C112.773 139.941 113.667 142.02 114.26 143.208L114.079 143.315L112.319 139.683Z" fill="#F1F1F0"/>
<path d="M104.92 142.834L111.448 140.108L111.53 140.301C111.381 140.363 110.785 140.612 111.169 141.519L114.699 149.847C115.084 150.754 115.68 150.505 115.829 150.443L115.911 150.636L113.407 151.681L113.325 151.488C113.474 151.426 114.056 151.183 113.677 150.291L109.851 141.265L106.781 142.547C105.335 143.151 105.943 145.33 106.371 146.586L106.177 146.667L104.92 142.834Z" fill="#F1F1F0"/>
<path d="M97.251 144.993L104.24 143.118L104.295 143.321C104.138 143.363 103.513 143.531 103.769 144.485L106.118 153.241C106.374 154.194 106.999 154.026 107.156 153.984L107.21 154.188L100.378 156.021L99.5543 154.264L99.7576 154.21C99.9856 154.685 100.417 155.541 101.402 155.277L105.248 154.245L104.396 151.071L101.019 151.977C100.003 152.25 100.203 152.682 100.275 153.015L100.072 153.069L99.5348 151.068L99.738 151.014C99.8376 151.322 99.8852 151.812 100.902 151.539L104.279 150.633L102.513 144.051L99.1353 144.957C97.6187 145.364 97.9204 147.613 98.1706 148.92L97.9673 148.975L97.251 144.993Z" fill="#F1F1F0"/>
<path d="M97.0116 150.883L97.0277 150.881C97.3838 154.086 95.7048 156.936 92.4838 157.297C91.1217 157.45 89.8682 157.12 88.8943 156.386L88.3316 154.534L88.5399 154.511C89.0688 156.204 90.8796 157.023 92.434 156.849C95.1261 156.546 96.1588 153.721 95.8579 151.012C95.5534 148.272 93.9295 145.776 91.2373 146.079C89.3945 146.286 88.6841 147.193 88.8924 149.068L89.0135 150.158C89.0812 150.767 89.2272 150.913 89.7756 150.884L92.6315 150.741L92.6547 150.95L87.2544 151.556L87.2312 151.348C87.3914 151.33 88.0324 151.258 87.9238 150.28L87.6336 147.668C88.4455 146.506 89.6811 145.799 91.1714 145.632C94.3924 145.27 96.6537 147.661 97.0116 150.883Z" fill="#F1F1F0"/>
<path d="M79.8673 157.48L77.1079 147.059C76.8555 146.136 76.1675 145.997 76.0061 145.987L76.0187 145.777L79.2136 145.973L79.201 146.183C78.491 146.139 78.1812 146.444 78.3371 147.085L79.2952 150.821L83.0871 151.053L84.5977 147.469C84.8452 146.852 84.5741 146.512 83.8642 146.468L83.8768 146.258L86.3294 146.409L86.3168 146.618C86.1554 146.609 85.51 146.569 85.095 147.548L81.4064 156.392C81.0104 157.323 81.9937 157.399 82.155 157.409L82.1425 157.619L79.8673 157.48ZM80.7787 156.596L82.9138 151.512L79.4123 151.297L80.7787 156.596Z" fill="#F1F1F0"/>
<path d="M66.3281 154.93L66.28 155.135L64.1997 154.647L64.2478 154.442C64.4054 154.479 65.0358 154.627 65.2615 153.665L67.6069 143.673L67.796 143.718L72.2533 155.19L74.2991 146.475C74.5248 145.513 73.9101 145.369 73.7367 145.329L73.7848 145.124L75.8652 145.612L75.8171 145.817C75.6595 145.78 75.0291 145.632 74.8034 146.593L72.728 155.435C72.5061 156.38 73.1365 156.528 73.2941 156.565L73.246 156.77L71.4493 156.348L67.5526 146.172L65.7658 153.784C65.5401 154.745 66.1705 154.893 66.3281 154.93Z" fill="#F1F1F0"/>
<path d="M64.0309 148.555C62.7702 151.529 59.948 153.221 56.9524 151.97C55.6855 151.441 54.7506 150.543 54.2587 149.427L54.6895 147.542L54.8833 147.623C54.4942 149.368 55.6895 150.935 57.1352 151.538C59.639 152.584 61.9522 150.645 63.0175 148.132C64.0954 145.589 63.8836 142.612 61.3649 141.561C59.3827 140.733 57.5944 141.351 56.4511 143.552L56.2573 143.471L57.588 140.911C58.7905 140.433 60.051 140.522 61.5414 141.144C64.537 142.395 65.298 145.566 64.0309 148.555Z" fill="#F1F1F0"/>
<path d="M51.7254 135.096L57.9804 138.849L57.8707 139.031C57.7307 138.947 57.171 138.611 56.6559 139.463L51.9274 147.283C51.4124 148.135 51.9721 148.471 52.112 148.555L52.0023 148.736L45.8872 145.067L46.5897 143.243L46.7716 143.352C46.5853 143.849 46.2635 144.76 47.1451 145.289L50.5875 147.354L52.3016 144.52L49.279 142.706C48.3694 142.16 48.1945 142.607 48.0032 142.892L47.8213 142.783L48.9021 140.996L49.084 141.105C48.9291 141.392 48.6058 141.769 49.5154 142.315L52.538 144.129L56.0928 138.25L53.0702 136.436C51.7129 135.622 50.2873 137.412 49.511 138.506L49.329 138.397L51.7254 135.096Z" fill="#F1F1F0"/>
<path d="M43.9888 137.247L43.9363 137.308L42.5004 136.253L41.2326 135.001L41.2851 134.94L42.7104 136.007L43.9888 137.247Z" fill="#F1F1F0"/>
<path d="M37.1715 131.379C34.6805 133.449 31.3977 133.651 29.3202 131.145C28.4417 130.085 28.0277 128.85 28.1069 127.626L29.3595 126.142L29.4939 126.304C28.343 127.682 28.6789 129.635 29.6814 130.845C31.4178 132.939 34.3638 132.281 36.4687 130.531C38.5984 128.761 39.7853 126.006 38.0386 123.898C36.6639 122.24 34.7933 121.963 32.7636 123.397L32.6293 123.235L34.9909 121.567C36.2775 121.698 37.3537 122.362 38.3873 123.609C40.4648 126.115 39.6749 129.298 37.1715 131.379Z" fill="#F1F1F0"/>
<path d="M34.1382 117.879L35.5144 120.219L35.3337 120.326C35.2518 120.187 34.9242 119.629 34.0765 120.132L26.2947 124.747C25.4471 125.25 25.7747 125.807 25.8566 125.946L25.676 126.053L24.2998 123.714L24.4805 123.606C24.5624 123.746 24.8901 124.303 25.7377 123.8L28.0445 122.432L25.243 117.67L22.9363 119.038C22.0886 119.54 22.4163 120.097 22.4982 120.237L22.3175 120.344L20.9414 118.004L21.1221 117.897C21.204 118.036 21.5316 118.593 22.3793 118.091L30.1611 113.476C31.0087 112.973 30.6811 112.416 30.5992 112.277L30.7798 112.17L32.1559 114.509L31.9753 114.616C31.8934 114.477 31.5657 113.92 30.7181 114.423L25.6321 117.439L28.4335 122.201L33.5195 119.185C34.3672 118.683 34.0395 118.126 33.9576 117.986L34.1382 117.879Z" fill="#F1F1F0"/>
<path d="M28.7995 106.696C29.947 109.741 28.1686 112.504 25.1389 113.646C22.0941 114.794 18.9341 113.891 17.7866 110.846C16.6391 107.802 18.4175 105.038 21.4623 103.891C24.492 102.749 27.652 103.651 28.7995 106.696ZM28.2098 106.416C27.0386 103.951 23.9974 103.869 21.523 105.061C19.0277 106.244 17.1957 108.682 18.3821 111.141C19.5532 113.606 22.5944 113.688 25.0688 112.496C27.5641 111.313 29.3961 108.876 28.2098 106.416Z" fill="#F1F1F0"/>
<path d="M25.9239 96.1663C26.5154 99.3542 24.2855 101.748 21.1123 102.331C17.9233 102.917 14.9811 101.473 14.3895 98.2848C13.7979 95.0969 16.0279 92.7028 19.2169 92.1171C22.3901 91.5343 25.3323 92.9784 25.9239 96.1663ZM25.3943 95.7879C24.6777 93.1642 21.7081 92.5452 19.0709 93.2756C16.415 93.993 14.1896 96.0582 14.922 98.6791C15.6386 101.303 18.6082 101.922 21.2454 101.191C23.9013 100.474 26.1267 98.4088 25.3943 95.7879Z" fill="#F1F1F0"/>
<path d="M23.6925 90.2912L20.819 90.6032L20.8127 90.3928C23.2569 89.802 24.5021 88.6476 24.4522 86.9647C24.4186 85.832 23.8556 84.3263 22.286 84.3729C20.6027 84.4067 19.7088 85.9394 18.914 87.534C18.1648 89.03 17.2705 90.5465 15.9112 90.5869C14.2122 90.6373 13.2 89.2745 13.1414 87.3004C13.1107 86.2648 13.3522 85.124 14.0725 84.2928L16.0899 84.0548L16.0961 84.2651C14.6327 84.6163 13.5494 85.7659 13.5945 87.287C13.6281 88.4197 14.2281 89.5355 15.5388 89.4966C16.8009 89.4592 17.4754 88.1759 18.1613 86.7303C18.9233 85.1206 19.9708 83.308 21.6052 83.2594C23.8544 83.1927 24.85 85.0904 24.9053 86.9513C24.9413 88.1649 24.5375 89.2943 23.6925 90.2912Z" fill="#F1F1F0"/>
<path d="M26.2821 75.5797L25.5512 82.8156L25.3407 82.7946C25.3571 82.6327 25.4225 81.9852 24.4349 81.8864L15.3689 80.9798C14.3814 80.8811 14.316 81.5286 14.2996 81.6905L14.0892 81.6694L14.8037 74.5954L16.7484 74.4465L16.7271 74.657C16.1993 74.7023 15.2407 74.8026 15.1377 75.8224L14.7354 79.8046L18.0218 80.1332L18.375 76.6367C18.4813 75.5845 18.0036 75.6185 17.6653 75.5683L17.6866 75.3579L19.7588 75.5651L19.7375 75.7756C19.4121 75.7594 18.9346 75.6299 18.8283 76.6821L18.4751 80.1786L25.2908 80.8601L25.644 77.3636C25.8026 75.7934 23.5817 75.277 22.264 75.0471L22.2853 74.8367L26.2821 75.5797Z" fill="#F1F1F0"/>
<path d="M27.7613 66.2361C26.7769 69.3375 23.6692 70.4062 20.5832 69.4267C17.4818 68.4423 15.5594 65.7769 16.5438 62.6755C17.5282 59.5741 20.6359 58.5054 23.7373 59.4899C26.8232 60.4694 28.7457 63.1347 27.7613 66.2361ZM27.4713 65.6515C28.078 62.9907 25.741 61.043 23.0599 60.4468C20.3682 59.8302 17.4202 60.6099 16.8289 63.2756C16.2221 65.9363 18.5592 67.884 21.2403 68.4803C23.9319 69.0969 26.8799 68.3172 27.4713 65.6515Z" fill="#F1F1F0"/>
<path d="M22.6576 49.0961L22.4703 48.9992L23.4451 47.093L23.6324 47.1898C23.5586 47.3342 23.2632 47.9119 24.1421 48.3662L33.2776 53.0878L33.1889 53.2611L20.9789 54.8014L28.9472 58.9198C29.8262 59.3741 30.1142 58.8109 30.1954 58.652L30.3827 58.7489L29.4079 60.6551L29.2206 60.5583C29.2945 60.4139 29.5898 59.8362 28.7109 59.3819L20.6273 55.2039C19.7628 54.7571 19.4674 55.3347 19.3936 55.4792L19.2062 55.3823L20.0481 53.736L30.8655 52.4254L23.9058 48.8283C23.0269 48.374 22.7315 48.9516 22.6576 49.0961Z" fill="#F1F1F0"/>
<path d="M38.3342 46.2551L34.184 51.9794L34.0134 51.8573C34.1082 51.7266 34.4872 51.2038 33.6866 50.6305L26.3366 45.3676C25.536 44.7943 25.157 45.3171 25.0622 45.4478L24.8916 45.3256L26.4834 43.1299L26.6541 43.2521C26.5593 43.3828 26.1898 43.8925 26.9773 44.4564L34.9441 50.161L36.896 47.4688C37.8151 46.201 36.1613 44.6595 35.1419 43.8104L35.2651 43.6405L38.3342 46.2551Z" fill="#F1F1F0"/>
<path d="M29.1621 39.2675L28.9957 39.1366L30.3131 37.7012L36.7488 39.117L35.2748 33.9039C35.085 33.2223 34.8718 33.0704 34.5205 33.4532L34.3531 33.2994L35.8242 31.6966L35.9796 31.8394C35.8698 31.959 35.4087 32.4614 35.7457 33.631L37.318 39.2652L40.3187 42.0226C41.0479 42.6927 41.4871 42.2142 41.5968 42.0946L41.7522 42.2374L39.9079 44.247L39.7525 44.1042C39.8623 43.9845 40.3014 43.5061 39.5721 42.836L36.5715 40.0786L30.7169 38.822C29.7 38.6813 29.2609 39.1598 29.1621 39.2675Z" fill="#F1F1F0"/>
<path d="M46.6257 36.1644L44.7455 33.968L44.9159 33.8445C46.7842 35.5295 48.4417 35.9076 49.8049 34.9193C50.7225 34.2541 51.6495 32.942 50.7249 31.6727C49.7467 30.3021 47.9748 30.4269 46.2077 30.6682C44.5478 30.8918 42.789 31.007 41.9883 29.9077C40.9875 28.5337 41.5428 26.9312 43.1419 25.7718C43.9808 25.1636 45.0604 24.7209 46.1543 24.8477L47.49 26.379L47.3196 26.5025C46.2031 25.4922 44.641 25.245 43.4088 26.1383C42.4913 26.8035 41.9074 27.9267 42.6795 28.9867C43.423 30.0075 44.8648 29.842 46.4472 29.5947C48.2084 29.3177 50.2984 29.1622 51.2612 30.484C52.5861 32.303 51.5792 34.1929 50.0718 35.2857C49.0887 35.9985 47.9269 36.3008 46.6257 36.1644Z" fill="#F1F1F0"/>
<path d="M48.1562 22.729L48.0594 22.5421L50.4742 21.2909L50.571 21.4778C50.4273 21.5523 49.8523 21.8502 50.3066 22.727L53.2111 28.3327C54.0676 29.9856 56.0245 30.6308 57.6344 29.7967C59.3448 28.9105 59.9549 27.0264 59.0612 25.3016L56.1567 19.6959C55.7024 18.8191 55.1275 19.117 54.9837 19.1914L54.8869 19.0046L56.7842 18.0215L56.881 18.2084C56.7373 18.2829 56.1624 18.5807 56.6166 19.4575L59.5211 25.0633C60.6085 27.1618 59.8604 29.5185 57.7619 30.6058C55.7496 31.6485 53.2838 30.8658 52.2337 28.8391L49.3292 23.2334C48.8749 22.3566 48.3 22.6545 48.1562 22.729Z" fill="#F1F1F0"/>
<path d="M64.9794 27.185L62.4068 28.0702L62.3395 27.8707C62.4927 27.818 63.1052 27.6073 62.7899 26.6711L59.8949 18.0765C59.5795 17.1403 58.967 17.3511 58.8138 17.4037L58.7466 17.2042L62.7282 15.8342C64.3973 15.2599 66.2331 15.4845 66.838 17.2802C67.4377 19.0605 66.1137 20.3553 64.4445 20.9296L62.27 21.6778L63.8312 26.3128C64.1466 27.249 64.7591 27.0382 64.9122 26.9855L64.9794 27.185ZM60.6984 17.0122L62.1252 21.2481L63.9322 20.6263C65.6014 20.052 66.2568 19.0044 65.7967 17.6385C65.3262 16.2419 64.2052 15.8056 62.5054 16.3904L60.6984 17.0122Z" fill="#F1F1F0"/>
<path d="M75.8508 20.6963C76.6083 22.4097 77.7536 24.0019 78.9432 23.7811L78.981 23.9874C77.0778 24.3406 75.6188 22.38 74.6823 20.585C73.5156 18.3406 72.909 17.8953 71.6085 18.1366C70.8789 18.272 70.5206 18.7323 70.643 19.3986L71.5143 24.1425C71.695 25.1262 72.3294 25.0084 72.488 24.979L72.5259 25.1853L69.8613 25.6797L69.8235 25.4735C69.9821 25.444 70.6165 25.3263 70.4387 24.3585L68.8068 15.4737C68.629 14.5059 67.9946 14.6236 67.836 14.653L67.7981 14.4468L72.5404 13.5668C74.174 13.2636 75.4575 13.9114 75.6935 15.1965C75.9004 16.323 75.1867 17.2593 73.8389 17.6899C74.8307 18.1785 75.2917 19.4383 75.8508 20.6963ZM71.8123 17.6394C74.0645 17.2215 74.8248 16.539 74.615 15.3967C74.4139 14.3019 73.2405 13.8962 72.3048 14.0699L69.7513 14.5437L70.4681 18.4467C70.6419 18.0535 71.1145 17.7689 71.8123 17.6394Z" fill="#F1F1F0"/>
<path d="M86.1789 23.7276L78.9478 24.0004L78.9399 23.7901C79.1016 23.784 79.7487 23.7595 79.7115 22.7728L79.3698 13.7137C79.3326 12.7269 78.6855 12.7513 78.5238 12.7574L78.5158 12.5471L85.5852 12.2804L85.9969 14.1765L85.7866 14.1844C85.67 13.6704 85.4405 12.7395 84.4213 12.7779L80.4418 12.928L80.5657 16.212L84.0599 16.0802C85.1114 16.0405 85.0128 15.5744 85.0162 15.2341L85.2265 15.2262L85.3046 17.2968L85.0943 17.3047C85.0659 16.9818 85.1285 16.4935 84.077 16.5331L80.5827 16.6649L80.8396 23.4754L84.3338 23.3436C85.903 23.2844 86.1094 21.0248 86.1564 19.6947L86.3667 19.6867L86.1789 23.7276Z" fill="#F1F1F0"/>
<path d="M100.028 13.6881L99.9846 13.8948C99.8241 13.874 99.1979 13.7932 99.0735 14.7565L97.9101 23.7634C97.7836 24.7427 98.4258 24.8257 98.5863 24.8464L98.5594 25.0551L95.8621 24.7067L95.8891 24.498C96.0496 24.5187 96.6918 24.6017 96.8183 23.6223L97.8905 15.3219L92.7796 24.3086L92.2979 24.2463L89.6382 14.2559L88.566 22.5564C88.4395 23.5358 89.0817 23.6187 89.2423 23.6395L89.2153 23.8482L87.0961 23.5744L87.123 23.3657C87.2836 23.3865 87.9258 23.4694 88.0523 22.49L89.2157 13.4832C89.3401 12.5198 88.6979 12.4369 88.5373 12.4162L88.5643 12.2074L90.1698 12.4148L93.0346 22.8398L98.3418 13.4704L100.028 13.6881Z" fill="#F1F1F0"/>
<path d="M105.812 27.3723L98.8697 25.2531L98.9308 25.051C99.0861 25.0984 99.7073 25.2881 99.9937 24.3399L102.623 15.6349C102.91 14.6867 102.289 14.4971 102.133 14.4497L102.194 14.2476L108.981 16.3194L108.753 18.2532L108.551 18.1916C108.608 17.6657 108.694 16.7072 107.716 16.4086L103.895 15.2423L102.942 18.3978L106.297 19.4219C107.306 19.73 107.365 19.2555 107.479 18.9338L107.681 18.9955L107.08 20.9852L106.878 20.9235C106.956 20.6079 107.175 20.1653 106.165 19.8571L102.811 18.8331L100.834 25.3773L104.188 26.4013C105.695 26.8612 106.627 24.7859 107.105 23.5397L107.307 23.6013L105.812 27.3723Z" fill="#F1F1F0"/>
<path d="M112.698 24.0406L112.69 24.0546C114.284 21.2254 117.288 19.9067 120.109 21.5142C122.931 23.1217 123.365 26.3997 121.772 29.229C120.44 31.5937 118.176 32.8141 115.933 32.3538C116.484 33.8766 117.315 34.5733 118.535 34.5803L118.502 34.8033L118.092 34.7742C116.82 34.6629 115.804 33.7678 115.32 32.1907C114.972 32.0851 114.655 31.9232 114.346 31.7473C111.525 30.1398 111.105 26.8698 112.698 24.0406ZM113.47 24.9081C112.554 26.8963 112.494 29.2418 113.771 30.6945C113.803 29.9133 115.143 29.6731 115.77 31.8522C117.956 32.3167 119.977 30.6049 120.985 28.3534C122.129 25.8626 121.95 22.8229 119.458 21.6825C117.003 20.544 114.607 22.3953 113.47 24.9081ZM114.351 31.2111C114.532 31.3513 114.743 31.4712 114.997 31.579C115.053 31.611 115.095 31.635 115.159 31.6529C114.503 29.4939 113.546 30.5666 114.351 31.2111Z" fill="#F1F1F0"/>
<path d="M126.244 25.8601L126.376 25.6987L128.451 27.4189L128.319 27.5804C128.195 27.478 127.701 27.0684 127.081 27.8259L123.119 32.6688C121.951 34.0969 122.125 36.1382 123.509 37.285C124.979 38.5035 126.927 38.3264 128.146 36.8363L132.109 31.9933C132.729 31.2359 132.235 30.8263 132.111 30.7239L132.243 30.5625L133.874 31.9141L133.742 32.0755C133.618 31.9731 133.124 31.5635 132.504 32.321L128.542 37.164C127.058 38.977 124.627 39.2122 122.824 37.7173C121.094 36.2837 120.846 33.7235 122.279 31.9725L126.241 27.1296C126.861 26.3721 126.367 25.9625 126.244 25.8601Z" fill="#F1F1F0"/>
<path d="M138.414 36.4873L133.107 45.8387C132.643 46.6721 133.037 47.2514 133.145 47.371L132.989 47.5117L130.848 45.1432L131.003 45.0025C131.479 45.5288 131.913 45.5277 132.25 44.962L134.174 41.6319L131.632 38.8208L128.053 40.3208C127.447 40.5874 127.402 41.0192 127.878 41.5455L127.723 41.6862L126.079 39.868L126.234 39.7273C126.342 39.8469 126.775 40.3254 127.754 39.9175L136.557 36.1889C137.49 35.8015 136.842 35.061 136.734 34.9414L136.889 34.8007L138.414 36.4873ZM137.148 36.4811L132.076 38.6146L134.423 41.2103L137.148 36.4811Z" fill="#F1F1F0"/>
<path d="M136.993 53.6074L133.056 47.7105L133.231 47.5936C133.321 47.7282 133.68 48.2668 134.501 47.7184L142.041 42.6845C142.862 42.1362 142.503 41.5977 142.413 41.463L142.588 41.3462L144.098 43.608L143.923 43.7249C143.833 43.5902 143.482 43.0652 142.675 43.6045L134.502 49.0609L136.354 51.8344C137.226 53.1403 139.259 52.1331 140.417 51.4768L140.534 51.6518L136.993 53.6074Z" fill="#F1F1F0"/>
<path d="M138.737 56.9547L137.448 54.5597L137.634 54.46C137.71 54.6025 138.017 55.1728 138.887 54.7049L146.87 50.4099C147.74 49.942 147.433 49.3718 147.356 49.2292L147.542 49.1295L148.83 51.5245L148.645 51.6242C148.568 51.4817 148.262 50.9114 147.392 51.3793L139.408 55.6744C138.539 56.1422 138.846 56.7125 138.922 56.855L138.737 56.9547Z" fill="#F1F1F0"/>
<path d="M147.921 53.7396L147.834 53.5303L149.735 53.127L152.881 60.7076L151.247 61.7538L151.167 61.5594C151.596 61.2413 152.386 60.738 151.989 59.7811L151.368 58.2859C151.157 57.7776 150.888 57.6788 150.26 57.9394L142.037 61.3525C141.125 61.731 141.373 62.3291 141.435 62.4786L141.241 62.5593L140.198 60.0473L140.392 59.9667C140.455 60.1162 140.703 60.7143 141.615 60.3357L149.838 56.9227C150.466 56.6621 150.586 56.402 150.375 55.8936L149.755 54.3984C149.364 53.4565 148.449 53.6607 147.921 53.7396Z" fill="#F1F1F0"/>
<path d="M153.259 62.4315L153.46 62.3653L153.93 64.2477L149.221 68.8107L154.365 70.4528C155.036 70.6699 155.279 70.5764 155.154 70.0745L155.373 70.0201L155.899 72.122L155.695 72.1725C155.656 72.0156 155.491 71.3568 154.333 70.9936L148.785 69.2016L144.846 70.1763C143.889 70.4132 144.045 71.0407 144.085 71.1975L143.881 71.248L143.222 68.6128L143.426 68.5623C143.465 68.7191 143.622 69.3466 144.579 69.1097L148.519 68.135L152.777 63.9668C153.452 63.2001 153.295 62.5727 153.259 62.4315Z" fill="#F1F1F0"/>
<path d="M85.0605 91.98C88.9265 91.98 92.0605 88.846 92.0605 84.98C92.0605 81.114 88.9265 77.98 85.0605 77.98C81.1946 77.98 78.0605 81.114 78.0605 84.98C78.0605 88.846 81.1946 91.98 85.0605 91.98Z" fill="#F1F1F0"/>
</g>
<defs>
<clipPath id="clip0_1493_3152">
<rect width="148.22" height="149.97" fill="white" transform="translate(11 10)"/>
</clipPath>
</defs>
</svg>
