<svg width="30" height="36" viewBox="0 0 30 36" fill="none" xmlns="http://www.w3.org/2000/svg">
<path fill-rule="evenodd" clip-rule="evenodd" d="M8.75 8.30396C8.75 4.54116 11.7771 1.5 15.5 1.5C19.2229 1.5 22.25 4.54116 22.25 8.30396C22.25 12.0668 19.2229 15.1079 15.5 15.1079C11.7771 15.1079 8.75 12.0668 8.75 8.30396ZM15.5 0C10.9386 0 7.25 3.72289 7.25 8.30396C7.25 12.885 10.9386 16.6079 15.5 16.6079C20.0614 16.6079 23.75 12.885 23.75 8.30396C23.75 3.72289 20.0614 0 15.5 0ZM1.75 30.6301C1.75 28.365 2.43464 26.3435 3.50535 24.9057C4.57603 23.4678 5.9964 22.6511 7.5 22.6511H22.5C24.0036 22.6511 25.424 23.4678 26.4946 24.9057C27.5654 26.3435 28.25 28.365 28.25 30.6301V34.2446H1.75V30.6301ZM7.5 21.1511C5.41375 21.1511 3.58412 22.2884 2.30226 24.0098C1.02043 25.7312 0.25 28.0743 0.25 30.6301V34.9946C0.25 35.4088 0.585786 35.7446 1 35.7446H29C29.4142 35.7446 29.75 35.4088 29.75 34.9946V30.6301C29.75 28.0743 28.9796 25.7312 27.6977 24.0098C26.4159 22.2884 24.5862 21.1511 22.5 21.1511H7.5Z" fill="#010101"/>
</svg>
