<svg width="46" height="45" viewBox="0 0 46 45" fill="none" xmlns="http://www.w3.org/2000/svg">
<mask id="mask0_0_1" style="mask-type:luminance" maskUnits="userSpaceOnUse" x="5" y="5" width="36" height="36">
<path d="M5.57617 19.8013L26.168 40.2129L40.7304 25.778L20.1386 5.3664L5.57617 19.8013Z" fill="white"/>
</mask>
<g mask="url(#mask0_0_1)">
<path d="M21.6348 12.9942C26.9797 20.9 29.8031 22.6793 31.4091 22.683L37.9086 22.5986" stroke="#010101" stroke-miterlimit="10"/>
<path d="M21.3749 32.6296C26.9307 24.5821 29.8021 22.729 31.4087 22.6836L8.40039 22.9824" stroke="#010101" stroke-miterlimit="10"/>
</g>
<path d="M45.6507 22.5C45.6507 34.7221 35.5195 44.6484 22.9992 44.6484C10.4789 44.6484 0.347656 34.7221 0.347656 22.5C0.347656 10.2779 10.4789 0.351562 22.9992 0.351562C35.5195 0.351562 45.6507 10.2779 45.6507 22.5Z" stroke="#010101"/>
</svg>
