<svg width="31" height="17" viewBox="0 0 31 17" fill="none" xmlns="http://www.w3.org/2000/svg">
<g clip-path="url(#clip0_1443_3061)">
<path d="M15.0699 0.5C20.4569 0.5 26.5579 4.812 29.4209 7.104C30.3319 7.834 30.3319 9.166 29.4209 9.896C26.5579 12.188 20.4569 16.5 15.0709 16.5C9.68389 16.5 3.58289 12.188 0.718887 9.896C0.506036 9.73083 0.333773 9.51918 0.215268 9.27722C0.0967638 9.03527 0.0351562 8.76942 0.0351562 8.5C0.0351562 8.23058 0.0967638 7.96473 0.215268 7.72278C0.333773 7.48082 0.506036 7.26917 0.718887 7.104C3.58289 4.812 9.68389 0.5 15.0699 0.5Z" fill="#010101"/>
</g>
<defs>
<clipPath id="clip0_1443_3061">
<rect width="31" height="17" fill="white"/>
</clipPath>
</defs>
</svg>
