<svg width="27" height="57" viewBox="0 0 27 57" fill="none" xmlns="http://www.w3.org/2000/svg">
<line y1="-0.1" x2="57" y2="-0.1" transform="matrix(4.37114e-08 1 1 -4.37114e-08 26.5762 0)" stroke="#010101" stroke-width="0.2"/>
<line y1="-0.1" x2="57" y2="-0.1" transform="matrix(4.37114e-08 1 1 -4.37114e-08 0.349609 0)" stroke="#010101" stroke-width="0.2"/>
<line y1="-0.1" x2="26.227" y2="-0.1" transform="matrix(-1 0 0 1 26.4004 2.20001)" stroke="#010101" stroke-width="0.2"/>
<line y1="-0.1" x2="26.227" y2="-0.1" transform="matrix(-1 0 0 1 26.5762 54.9019)" stroke="#010101" stroke-width="0.2"/>
<rect x="-0.1" y="0.1" width="23.5791" height="48.4074" rx="1.9" transform="matrix(-1 0 0 1 24.9777 3.84662)" stroke="#010101" stroke-width="0.2"/>
<rect x="-0.1" y="0.1" width="20.4319" height="43.5117" rx="1.9" transform="matrix(-1 0 0 1 23.5793 6.29449)" stroke="#010101" stroke-width="0.2"/>
<line y1="-0.1" x2="2.09816" y2="-0.1" transform="matrix(4.37112e-08 1 1 -4.37112e-08 24.8281 0)" stroke="#010101" stroke-width="0.2"/>
<line y1="-0.1" x2="2.09816" y2="-0.1" transform="matrix(4.37112e-08 1 1 -4.37112e-08 23.0801 0)" stroke="#010101" stroke-width="0.2"/>
<line y1="-0.1" x2="2.09816" y2="-0.1" transform="matrix(4.37112e-08 1 1 -4.37112e-08 21.3301 0)" stroke="#010101" stroke-width="0.2"/>
<line y1="-0.1" x2="2.09816" y2="-0.1" transform="matrix(4.37112e-08 1 1 -4.37112e-08 19.582 0)" stroke="#010101" stroke-width="0.2"/>
<line y1="-0.1" x2="2.09816" y2="-0.1" transform="matrix(4.37112e-08 1 1 -4.37112e-08 17.834 0)" stroke="#010101" stroke-width="0.2"/>
<line y1="-0.1" x2="2.09816" y2="-0.1" transform="matrix(4.37112e-08 1 1 -4.37112e-08 16.0859 0)" stroke="#010101" stroke-width="0.2"/>
<line y1="-0.1" x2="2.09816" y2="-0.1" transform="matrix(4.37112e-08 1 1 -4.37112e-08 14.3359 0)" stroke="#010101" stroke-width="0.2"/>
<line y1="-0.1" x2="2.09816" y2="-0.1" transform="matrix(4.37112e-08 1 1 -4.37112e-08 12.5879 0)" stroke="#010101" stroke-width="0.2"/>
<line y1="-0.1" x2="2.09816" y2="-0.1" transform="matrix(4.37112e-08 1 1 -4.37112e-08 10.8398 0)" stroke="#010101" stroke-width="0.2"/>
<line y1="-0.1" x2="2.09816" y2="-0.1" transform="matrix(4.37112e-08 1 1 -4.37112e-08 9.0918 0)" stroke="#010101" stroke-width="0.2"/>
<line y1="-0.1" x2="2.09816" y2="-0.1" transform="matrix(4.37112e-08 1 1 -4.37112e-08 7.34375 0)" stroke="#010101" stroke-width="0.2"/>
<line y1="-0.1" x2="2.09816" y2="-0.1" transform="matrix(4.37112e-08 1 1 -4.37112e-08 5.59375 0)" stroke="#010101" stroke-width="0.2"/>
<line y1="-0.1" x2="2.09816" y2="-0.1" transform="matrix(4.37112e-08 1 1 -4.37112e-08 3.8457 0)" stroke="#010101" stroke-width="0.2"/>
<line y1="-0.1" x2="2.09816" y2="-0.1" transform="matrix(4.37112e-08 1 1 -4.37112e-08 2.09766 0)" stroke="#010101" stroke-width="0.2"/>
<line y1="-0.1" x2="2.09816" y2="-0.1" transform="matrix(4.37112e-08 1 1 -4.37112e-08 24.8281 54.9019)" stroke="#010101" stroke-width="0.2"/>
<line y1="-0.1" x2="2.09816" y2="-0.1" transform="matrix(4.37112e-08 1 1 -4.37112e-08 23.0801 54.9019)" stroke="#010101" stroke-width="0.2"/>
<line y1="-0.1" x2="2.09816" y2="-0.1" transform="matrix(4.37112e-08 1 1 -4.37112e-08 21.3301 54.9019)" stroke="#010101" stroke-width="0.2"/>
<line y1="-0.1" x2="2.09816" y2="-0.1" transform="matrix(4.37112e-08 1 1 -4.37112e-08 19.582 54.9019)" stroke="#010101" stroke-width="0.2"/>
<line y1="-0.1" x2="2.09816" y2="-0.1" transform="matrix(4.37112e-08 1 1 -4.37112e-08 17.834 54.9019)" stroke="#010101" stroke-width="0.2"/>
<line y1="-0.1" x2="2.09816" y2="-0.1" transform="matrix(4.37112e-08 1 1 -4.37112e-08 16.0859 54.9019)" stroke="#010101" stroke-width="0.2"/>
<line y1="-0.1" x2="2.09816" y2="-0.1" transform="matrix(4.37112e-08 1 1 -4.37112e-08 14.3359 54.9019)" stroke="#010101" stroke-width="0.2"/>
<line y1="-0.1" x2="2.09816" y2="-0.1" transform="matrix(4.37112e-08 1 1 -4.37112e-08 12.5879 54.9019)" stroke="#010101" stroke-width="0.2"/>
<line y1="-0.1" x2="2.09816" y2="-0.1" transform="matrix(4.37112e-08 1 1 -4.37112e-08 10.8398 54.9019)" stroke="#010101" stroke-width="0.2"/>
<line y1="-0.1" x2="2.09816" y2="-0.1" transform="matrix(4.37112e-08 1 1 -4.37112e-08 9.0918 54.9019)" stroke="#010101" stroke-width="0.2"/>
<line y1="-0.1" x2="2.09816" y2="-0.1" transform="matrix(4.37112e-08 1 1 -4.37112e-08 7.34375 54.9019)" stroke="#010101" stroke-width="0.2"/>
<line y1="-0.1" x2="2.09816" y2="-0.1" transform="matrix(4.37112e-08 1 1 -4.37112e-08 5.59375 54.9019)" stroke="#010101" stroke-width="0.2"/>
<line y1="-0.1" x2="2.09816" y2="-0.1" transform="matrix(4.37112e-08 1 1 -4.37112e-08 3.8457 54.9019)" stroke="#010101" stroke-width="0.2"/>
<line y1="-0.1" x2="2.09816" y2="-0.1" transform="matrix(4.37112e-08 1 1 -4.37112e-08 2.09766 54.9019)" stroke="#010101" stroke-width="0.2"/>
<path d="M14.5033 10.1517C14.5517 10.1577 14.715 10.1788 14.8661 10.1969C17.0764 10.4683 19.1113 11.7256 20.3691 13.6011C21.0222 14.578 21.4153 15.5851 21.6118 16.7881C21.6753 17.1922 21.7025 18.2626 21.6572 18.7149C21.4243 21.0396 20.1272 23.1955 18.2012 24.4588C18.0409 24.5644 17.8444 24.691 17.7658 24.7423C17.6388 24.8207 17.6146 24.8538 17.5813 24.9835C17.4332 25.5564 17.542 26.3162 17.8746 27.0097L18.0228 27.3203H18.1377C18.5217 27.3233 18.8573 27.7756 18.7243 28.1163C18.7122 28.1495 18.7212 28.2339 18.7485 28.3093C18.7878 28.4329 18.7878 28.46 18.7454 28.5776C18.7001 28.6982 18.7031 28.7073 18.7575 28.7254C18.8392 28.7495 19.0236 28.9153 19.0236 28.9636C19.0236 28.9877 18.9934 28.9967 18.942 28.9877C18.8694 28.9786 18.8785 28.9877 18.9813 29.0389C19.1536 29.1264 19.7372 29.7294 19.7614 29.847C19.7735 29.8953 19.8097 29.9616 19.846 29.9918C19.9277 30.0671 19.9912 30.1968 19.9912 30.2872C19.9912 30.3295 20.0184 30.4079 20.0516 30.4621C20.0849 30.5164 20.1121 30.5858 20.1121 30.6159C20.1121 30.6461 20.1423 30.7094 20.1786 30.7606C20.224 30.8209 20.2512 30.9054 20.2572 31.0079C20.2603 31.0953 20.2784 31.3004 20.2935 31.4662C20.3086 31.632 20.3147 31.8069 20.3026 31.8582C20.2905 31.9064 20.2875 31.9848 20.2905 32.03C20.2935 32.0753 20.2784 32.1416 20.2572 32.1808C20.2361 32.22 20.2179 32.2893 20.2149 32.3406C20.2119 32.3888 20.1937 32.5245 20.1726 32.6391C20.1544 32.7507 20.1423 32.8833 20.1484 32.9316C20.1575 32.9798 20.1605 33.019 20.1575 33.019C20.1575 33.019 20.0788 32.9467 19.9881 32.8592C19.8823 32.7567 19.7795 32.6874 19.6948 32.6632C19.6223 32.6391 19.5558 32.6301 19.5467 32.6361C19.5406 32.6451 19.5467 32.7024 19.5648 32.7658C19.5981 32.8924 19.6434 33.5648 19.6344 33.8331C19.6313 33.9236 19.5951 34.1347 19.5497 34.3005C19.5074 34.4663 19.462 34.6895 19.4499 34.798C19.4348 34.9066 19.3925 35.0694 19.3502 35.1598C19.3078 35.2503 19.2564 35.3769 19.2383 35.4372C19.2171 35.4975 19.1839 35.5639 19.1597 35.582C19.1355 35.6001 19.0811 35.7146 19.0357 35.8322C18.945 36.0765 18.7606 36.2875 18.6154 36.3237C18.5096 36.3508 18.2314 36.5197 18.1044 36.6343C18.0046 36.7247 18.0046 36.7217 18.1528 36.4383C18.3312 36.0976 18.3886 35.8895 18.3886 35.6031C18.3886 35.3257 18.31 34.9669 18.1951 34.7226C18.1558 34.6382 18.1075 34.5236 18.0893 34.4663C18.0712 34.409 17.9926 34.2462 17.917 34.1045C17.1973 32.7808 17.0855 32.4733 16.9948 31.617C16.9524 31.2159 16.9736 30.9627 17.0673 30.6822C17.1066 30.5646 17.149 30.429 17.1611 30.3807C17.1822 30.2963 17.1792 30.2933 17.1399 30.3506C17.1157 30.3837 17.0764 30.4712 17.0552 30.5466C17.0008 30.7456 16.9676 30.7606 16.9676 30.5888C16.9676 30.1244 17.1883 29.6661 17.669 29.1324L17.9926 28.7736L17.9291 28.65C17.8958 28.5806 17.8293 28.5053 17.7809 28.4811C17.6781 28.4269 17.5632 28.2761 17.5148 28.1374C17.4634 27.9776 17.4755 27.8268 17.5541 27.667L17.6297 27.5223L17.5088 27.2841C17.2185 26.7112 17.0764 26.081 17.0915 25.4659C17.0976 25.2579 17.0976 25.089 17.0885 25.089C17.0794 25.089 16.9615 25.1342 16.8285 25.1915C16.3084 25.4086 15.5767 25.6076 14.972 25.6951C14.8299 25.7162 14.7119 25.7343 14.7059 25.7373C14.7029 25.7403 14.7331 25.8127 14.7785 25.8971C14.9689 26.2619 14.9448 26.7112 14.6726 27.8329C14.588 28.1736 14.5094 28.5414 14.4942 28.656L14.467 28.858L14.6001 28.9364C14.9266 29.1264 15.0113 29.5455 14.7845 29.8561C14.7301 29.9284 14.6847 30.0098 14.6847 30.034C14.6817 30.0581 14.6787 30.1093 14.6757 30.1455C14.6726 30.1847 14.6243 30.2661 14.5668 30.3264L14.467 30.441L14.5033 30.6219C14.5245 30.7245 14.6303 31.023 14.7392 31.2853C15.0506 32.0481 15.1685 32.4793 15.3167 33.411C15.4769 34.397 15.4981 34.6925 15.5011 35.7478C15.5011 36.8152 15.4739 37.1469 15.3167 37.9338C15.1655 38.6937 14.8661 39.6073 14.5608 40.2435C14.5033 40.3611 14.458 40.4666 14.458 40.4756C14.458 40.4998 13.947 41.4375 13.7988 41.6878C13.5358 42.134 13.2515 42.5893 13.0308 42.915C12.9008 43.1079 12.795 43.2798 12.795 43.2979C12.795 43.313 12.7829 43.3311 12.7708 43.3371C12.7557 43.3401 12.6529 43.4818 12.541 43.6477C12.4291 43.8135 12.3052 43.9884 12.2628 44.0366C12.1147 44.2025 11.6974 44.8568 11.5372 45.1764C11.2378 45.7704 11.129 46.2166 11.1925 46.5815C11.2106 46.693 11.2439 46.8016 11.262 46.8257C11.3255 46.9011 11.1259 46.8347 11.0594 46.7594C10.9052 46.5815 10.5605 45.6678 10.497 45.2759C10.4789 45.1583 10.4728 45.0045 10.4819 44.9291C10.497 44.8266 10.4849 44.7512 10.4396 44.6336C10.4033 44.5462 10.3761 44.4105 10.3761 44.3321C10.3761 44.2416 10.3489 44.1361 10.3065 44.0517C10.2491 43.9371 10.24 43.8678 10.237 43.5723C10.237 43.2617 10.2249 43.2044 10.1523 43.0295C10.0737 42.8516 10.0677 42.8124 10.0858 42.5923C10.0949 42.4597 10.104 42.336 10.104 42.321C10.107 42.3029 10.0919 42.2154 10.0707 42.125C10.0495 42.0194 10.0435 41.8596 10.0586 41.6878C10.0707 41.537 10.0828 41.2596 10.0888 41.0696C10.0949 40.8164 10.113 40.6686 10.1614 40.5209C10.2128 40.3611 10.2279 40.2254 10.237 39.8877C10.24 39.6495 10.2612 39.4173 10.2793 39.3721C10.3035 39.3178 10.3096 39.1851 10.2975 38.9801C10.2763 38.6334 10.3277 38.2806 10.4517 37.9399C10.5091 37.7831 10.5182 37.7137 10.5001 37.6293C10.4698 37.5026 10.5273 37.0654 10.5968 36.9056C10.621 36.8453 10.6512 36.7247 10.6633 36.6343C10.6936 36.387 10.7601 36.1518 10.8568 35.9408C10.9022 35.8352 10.9657 35.6815 10.9959 35.6031C11.0231 35.5247 11.0927 35.389 11.1501 35.3046C11.2076 35.2231 11.2529 35.1297 11.2529 35.1025C11.2529 35.0754 11.2741 35.0241 11.2983 34.991C11.3225 34.9608 11.3406 34.9005 11.3436 34.8583C11.3436 34.8161 11.3678 34.6955 11.4011 34.5869C11.4344 34.4784 11.4737 34.3216 11.4948 34.2402C11.516 34.1407 11.5976 33.9869 11.7307 33.7909C11.8425 33.6281 11.9816 33.411 12.0391 33.3055C12.0965 33.203 12.1751 33.0793 12.2114 33.0281C12.2477 32.9798 12.3263 32.8441 12.3868 32.7326C12.4442 32.618 12.547 32.4552 12.6105 32.3708C12.7557 32.1808 12.8434 31.9667 12.8706 31.7587C12.9129 31.3788 13.1578 30.9144 13.5509 30.4742L13.7867 30.2058L13.7807 30.037C13.7776 29.9405 13.7504 29.8229 13.7172 29.7626C13.5902 29.5274 13.6748 29.1626 13.8956 28.9937C13.9923 28.9214 13.9984 28.9033 14.0316 28.6379C14.0528 28.4872 14.1496 28.0409 14.2493 27.652C14.5124 26.6147 14.5215 26.28 14.2886 26.0237C14.1344 25.8549 13.9228 25.7825 13.5781 25.7825C12.9583 25.7825 12.0784 25.6257 11.3648 25.3875C11.1139 25.3061 10.9022 25.2488 10.8931 25.2639C10.8841 25.276 10.8327 25.3483 10.7813 25.4207C10.4668 25.87 10.2491 26.6328 10.2037 27.4258L10.1886 27.7575L10.3005 27.8178C10.5998 27.9746 10.6845 28.4027 10.4789 28.7163C10.4214 28.8007 10.4063 28.855 10.4214 28.9183C10.4487 29.042 10.3912 29.2138 10.2884 29.3224L10.2007 29.4159L10.4577 30.049C11.0564 31.5265 11.1804 32.3858 10.9627 33.5588C10.9052 33.8663 10.7722 34.3216 10.6452 34.6382C10.5333 34.9246 10.1312 35.7448 10.0979 35.7568C10.0768 35.7659 9.83789 36.1368 9.70787 36.3599C9.68368 36.4051 9.62624 36.4805 9.58088 36.5318C9.4297 36.6976 8.6224 37.7318 8.07513 38.4555C7.546 39.158 7.35248 39.4776 7.29806 39.7279C7.28596 39.7912 7.26178 39.8485 7.24363 39.8545C7.19828 39.8696 7.11967 39.6736 7.07734 39.4414C7.05617 39.3329 7.00779 39.1882 6.97151 39.1158C6.93523 39.0464 6.8929 38.9108 6.88383 38.8143C6.87173 38.7208 6.84452 38.6002 6.82335 38.5519C6.80219 38.5007 6.73869 38.3318 6.68729 38.175C6.59054 37.8976 6.58751 37.8705 6.58751 37.3911C6.58449 36.4895 6.68124 35.8051 6.85057 35.5609C6.90499 35.4794 6.97453 35.3227 7.00477 35.2081C7.03501 35.0935 7.09245 34.9638 7.12874 34.9186C7.16804 34.8764 7.21945 34.7799 7.24968 34.7045C7.31015 34.5508 7.38574 34.4301 7.50669 34.3005C7.55204 34.2492 7.5974 34.1618 7.60949 34.1045C7.64275 33.9417 7.79393 33.6763 7.96023 33.4924C8.04187 33.402 8.10839 33.3115 8.10839 33.2934C8.10839 33.2331 8.29283 32.8894 8.39865 32.7507C8.4561 32.6783 8.50145 32.5969 8.50145 32.5698C8.50145 32.5426 8.55588 32.41 8.6224 32.2713C8.68892 32.1356 8.74334 32.0059 8.74334 31.9848C8.74334 31.9637 8.78567 31.8823 8.83405 31.8009C8.90964 31.6833 8.92174 31.6441 8.90057 31.5627L8.87336 31.4662L8.82196 31.5717C8.79172 31.629 8.72823 31.7165 8.68287 31.7677C8.63147 31.825 8.58914 31.9215 8.56495 32.03C8.54379 32.1235 8.48936 32.2592 8.44098 32.3316C8.3926 32.4039 8.35027 32.4914 8.35027 32.5275C8.35027 32.6331 8.24142 32.8894 8.14769 33.013C8.10234 33.0733 8.0328 33.1849 7.99651 33.2602C7.93302 33.3869 7.8151 33.5407 7.54902 33.8482C7.49157 33.9145 7.39481 34.0261 7.33434 34.0955C7.27387 34.1648 7.08036 34.3156 6.90499 34.4241C6.7266 34.5357 6.53309 34.6714 6.47564 34.7256C6.37888 34.8161 6.12188 34.9488 6.04629 34.9488C6.03117 34.9488 5.97977 34.9759 5.93441 35.0091C5.88604 35.0392 5.78323 35.0814 5.7016 35.0995C5.61996 35.1176 5.49297 35.1628 5.41738 35.202C5.22084 35.3046 5.12106 35.3166 4.9336 35.2654C4.84289 35.2382 4.63426 35.187 4.47099 35.1508C4.30771 35.1116 4.18374 35.0724 4.19584 35.0603C4.20793 35.0483 4.24119 35.0392 4.27143 35.0392C4.35911 35.0392 4.8308 34.8372 4.97593 34.7407C5.18456 34.596 5.369 34.3668 5.5353 34.0472C5.61996 33.8814 5.6895 33.7306 5.6895 33.7095C5.6895 33.6884 5.71671 33.616 5.74997 33.5497C5.78021 33.4804 5.87696 33.1819 5.96163 32.8833C6.25189 31.8552 6.41214 31.4602 6.70846 31.023C7.05315 30.5074 7.33434 30.2239 7.66996 30.0551C7.7516 30.0129 7.86045 29.9465 7.91185 29.9134C7.99651 29.8531 7.99651 29.85 7.92697 29.8681C7.88464 29.8802 7.79091 29.9224 7.71834 29.9616C7.64577 30.0008 7.57925 30.0279 7.57321 30.0219C7.54902 30.0008 7.803 29.7626 7.94813 29.6721C8.2505 29.4792 8.90359 29.3405 9.4932 29.3405C9.58088 29.3405 9.65043 29.3344 9.65043 29.3254C9.65043 29.3194 9.62019 29.256 9.58693 29.1897C9.53553 29.0932 9.52646 29.0359 9.54158 28.9274C9.55669 28.8098 9.54762 28.7796 9.48413 28.7012C9.38737 28.5867 9.33899 28.3967 9.36318 28.2369C9.38132 28.1072 9.49622 27.9082 9.58693 27.8419C9.74113 27.7303 9.73811 27.7364 9.77137 27.3655C9.85301 26.4549 10.0495 25.7674 10.3761 25.2488C10.4426 25.1433 10.497 25.0498 10.497 25.0468C10.497 25.0408 10.3519 24.9564 10.1735 24.8599C9.43877 24.4588 8.80684 23.9794 8.22328 23.3764C7.1499 22.2638 6.43633 20.8828 6.16118 19.3782C5.76207 17.2133 6.28213 15.0092 7.60647 13.2483C7.90883 12.8473 8.53774 12.196 8.93988 11.8733C9.58693 11.3547 10.4547 10.8632 11.2076 10.5919C11.6037 10.4471 12.2961 10.2753 12.7345 10.2089C13.0338 10.1607 14.2886 10.1215 14.5033 10.1517ZM13.8835 11.204C13.8835 11.4964 13.8925 11.5477 14.0044 11.8764C14.2312 12.5246 14.4187 13.3719 14.4731 13.978C14.5124 14.4423 14.5124 14.4393 14.6182 14.4604C14.8329 14.5026 15.2139 14.6413 15.4648 14.7649C15.613 14.8373 15.7369 14.8976 15.743 14.8976C15.749 14.8976 15.7974 14.8283 15.8488 14.7408C15.9426 14.5901 15.9426 14.581 15.8972 14.5026C15.7611 14.2704 15.9153 14.0141 16.1905 14.0172L16.3175 14.0202L16.5322 13.6975L16.7468 13.3749L16.6561 13.2603C16.4808 13.0463 16.5261 12.6784 16.7468 12.5216C16.8768 12.4312 17.0522 12.392 17.1943 12.4251C17.2608 12.4402 17.3243 12.4553 17.3334 12.4553C17.3485 12.4553 17.4241 12.3497 17.6116 12.0603L17.663 11.9819L17.3364 11.798C16.5684 11.3638 15.6311 11.0502 14.8057 10.9507C14.6545 10.9326 14.5003 10.9115 14.458 10.9055C14.4156 10.8994 14.2705 10.8934 14.1314 10.8904L13.8835 10.8874V11.204ZM12.795 10.9658C12.408 11.0231 11.7821 11.1798 11.4374 11.3065C11.1199 11.4241 10.6422 11.6442 10.6543 11.6683C10.6603 11.6774 10.7208 11.798 10.7903 11.9336L10.9173 12.1809L11.0262 12.1507C11.2257 12.0935 11.4978 12.2231 11.6007 12.4281C11.6551 12.5276 11.6611 12.793 11.6127 12.8865C11.5946 12.9226 11.5372 12.995 11.4888 13.0463L11.4011 13.1397L11.5765 13.4925L11.7518 13.8423H11.8667C12.0058 13.8423 12.1116 13.9056 12.16 14.0232C12.2054 14.1348 12.1782 14.3006 12.0995 14.3699C12.0421 14.4212 12.0421 14.4242 12.1298 14.5991L12.2205 14.774L12.417 14.6835C12.5259 14.6353 12.7466 14.5569 12.9099 14.5117L13.2032 14.4272L13.2274 14.1106C13.2727 13.4744 13.4692 12.5427 13.6869 11.9156C13.7686 11.6774 13.7897 11.5628 13.8079 11.2522L13.8321 10.8783L13.4723 10.8994C13.2757 10.9085 12.9703 10.9386 12.795 10.9658ZM10.237 11.8884C9.50227 12.3226 8.72218 13.0252 8.22631 13.6915C7.91185 14.1136 7.73951 14.391 7.76974 14.4182C7.78184 14.4302 7.89976 14.5026 8.03582 14.575C8.23235 14.6865 8.3412 14.7227 8.62542 14.774C9.34806 14.9097 10.1644 15.172 10.7994 15.4735L11.129 15.6303L11.4132 15.3589C11.5704 15.2112 11.8032 15.0242 11.9272 14.9428L12.157 14.7981L12.0723 14.6323C11.9937 14.4755 11.9846 14.4694 11.8577 14.4634C11.7549 14.4574 11.7095 14.4363 11.643 14.3609C11.5372 14.2433 11.5311 14.1227 11.6188 13.9659L11.6823 13.8513L11.516 13.5196L11.3497 13.191H11.1562C11.008 13.194 10.9415 13.1789 10.8538 13.1247C10.5605 12.9437 10.5091 12.5337 10.751 12.2955L10.8508 12.199L10.7268 11.9487C10.6603 11.813 10.5908 11.7015 10.5756 11.7015C10.5605 11.7015 10.4094 11.7859 10.237 11.8884ZM17.5723 12.2502C17.4967 12.3709 17.4332 12.4764 17.4271 12.4915C17.4211 12.5035 17.4544 12.5638 17.5027 12.6241C17.5753 12.7206 17.5874 12.7628 17.5874 12.9377C17.5874 13.1096 17.5753 13.1548 17.5027 13.2483C17.3606 13.4352 17.1429 13.5046 16.892 13.4443C16.8043 13.4201 16.7952 13.4292 16.5866 13.7458L16.3719 14.0684L16.4294 14.1589C16.4989 14.2765 16.4989 14.376 16.4233 14.4966C16.3628 14.5991 16.2147 14.6594 16.0847 14.6353C16.0212 14.6232 15.994 14.6443 15.9153 14.771C15.8609 14.8524 15.8186 14.9278 15.8186 14.9368C15.8186 14.9458 15.8821 15.0001 15.9607 15.0544C16.0423 15.1087 16.2177 15.2594 16.3538 15.3891L16.5987 15.6243L16.8375 15.5067C17.415 15.2172 18.2556 14.9398 19.0357 14.78C19.3411 14.7197 19.5376 14.6594 19.7251 14.572C19.8732 14.5026 19.9912 14.4363 19.9912 14.4212C19.9912 14.373 19.5799 13.7759 19.3653 13.5106C19.1143 13.2 18.6638 12.7447 18.3584 12.4975C18.1256 12.3075 17.7507 12.0362 17.7235 12.0362C17.7144 12.0362 17.6479 12.1327 17.5723 12.2502ZM7.48855 14.8735C7.16804 15.5429 6.95034 16.2514 6.85661 16.9329C6.78707 17.4455 6.78102 17.554 6.82033 17.5661C6.83847 17.5721 6.96849 17.5842 7.1106 17.5962L7.3676 17.6143L7.43715 17.4605C7.64275 17.0143 8.3533 17.0836 8.43191 17.56L8.44703 17.6626L8.67682 17.6837C8.80079 17.6927 8.98221 17.7017 9.08199 17.7017C9.24224 17.7017 9.26038 17.6957 9.29364 17.6234C9.33597 17.5299 9.46296 17.4605 9.59298 17.4605C9.69578 17.4605 9.89231 17.6264 9.89231 17.7138C9.89231 17.753 9.9286 17.7621 10.0828 17.7621H10.2733L10.3096 17.4967C10.3277 17.352 10.367 17.153 10.3942 17.0535C10.4214 16.954 10.4487 16.8454 10.4577 16.8123C10.4668 16.764 10.4154 16.7128 10.2037 16.565C9.59902 16.1399 8.98221 15.5851 8.52867 15.0604C8.31701 14.8162 8.2505 14.7589 8.00861 14.6292C7.8544 14.5448 7.71834 14.4755 7.70625 14.4755C7.69113 14.4755 7.59437 14.6564 7.48855 14.8735ZM19.71 14.6534C19.4288 14.786 19.3864 14.8192 19.2262 15.0092C18.8301 15.4886 18.0409 16.2032 17.4876 16.5771C17.3516 16.6705 17.2397 16.758 17.2397 16.7731C17.2397 16.7851 17.2729 16.9087 17.3122 17.0505C17.3757 17.2676 17.4634 17.9098 17.4423 18.0123C17.4392 18.0364 17.5027 18.0515 17.6327 18.0545C17.8232 18.0636 17.8323 18.0606 17.8898 17.9671C18.0319 17.7409 18.3252 17.759 18.4491 18.0003L18.5096 18.1239H18.7303C18.8482 18.1239 19.0176 18.1329 19.1052 18.142L19.2625 18.1631L19.3108 18.0455C19.4076 17.8133 19.5679 17.7017 19.8097 17.7017C20.0637 17.7017 20.2542 17.8465 20.3268 18.0937C20.357 18.1932 20.3782 18.2143 20.4417 18.2143C20.484 18.2143 20.611 18.2234 20.7229 18.2354L20.9285 18.2535V17.8435C20.9285 16.9329 20.7198 15.974 20.3238 15.0755C20.2058 14.8102 20.0486 14.5056 20.0274 14.5056C20.0214 14.5056 19.8793 14.572 19.71 14.6534ZM6.778 17.9972C6.778 18.8837 6.97756 19.8486 7.34039 20.7109C7.44924 20.9702 7.65787 21.3894 7.7002 21.4346C7.70625 21.4406 7.83928 21.3743 7.99954 21.2868C8.24142 21.1542 8.32004 21.0908 8.46819 20.916C8.69799 20.6416 9.32388 20.0235 9.63531 19.7672C9.76835 19.6586 10.0163 19.4717 10.1826 19.3541L10.491 19.14L10.4335 18.9712C10.3519 18.736 10.2854 18.338 10.2854 18.0787V17.8585L10.107 17.8374C9.91953 17.8163 9.86208 17.8284 9.86208 17.8947C9.86208 17.9158 9.82579 17.9641 9.78346 18.0063C9.72602 18.0606 9.67159 18.0787 9.56879 18.0787C9.45389 18.0787 9.42063 18.0636 9.34504 17.9791C9.29666 17.9249 9.25736 17.8616 9.25736 17.8404C9.25736 17.7952 9.13641 17.7771 8.66171 17.753L8.44401 17.7409L8.42586 17.8284C8.38656 18.0033 8.1235 18.2113 7.94209 18.2143C7.69718 18.2143 7.42807 18.0093 7.39481 17.7922L7.37667 17.6746L7.12874 17.6626C6.9957 17.6595 6.85964 17.6505 6.8294 17.6475C6.78405 17.6414 6.778 17.6746 6.778 17.9972ZM17.4271 18.2445C17.412 18.4465 17.3576 18.742 17.2941 18.95C17.2397 19.1279 17.2367 19.1611 17.276 19.1822C17.3788 19.2395 17.8172 19.5621 18.0863 19.7792C18.431 20.0566 19.0357 20.6506 19.2776 20.9521C19.4227 21.13 19.4983 21.1934 19.7039 21.3049C19.84 21.3803 19.967 21.4406 19.9851 21.4406C20.0607 21.4406 20.3873 20.7411 20.5838 20.1591C20.7712 19.5983 20.9738 18.4978 20.9164 18.35C20.9043 18.3138 20.8408 18.3048 20.6261 18.3048H20.354L20.3086 18.4164C20.2451 18.5671 20.1816 18.6335 20.0365 18.6998C19.8763 18.7722 19.7372 18.7722 19.5769 18.6938C19.4257 18.6214 19.329 18.4978 19.3048 18.35C19.2836 18.2234 19.2867 18.2234 18.818 18.1993L18.4794 18.1842L18.4491 18.2596C18.4068 18.3711 18.2435 18.4616 18.1165 18.4435C18.0077 18.4284 17.8444 18.2837 17.8444 18.2023C17.8444 18.151 17.7567 18.1299 17.5723 18.1359C17.4392 18.139 17.4362 18.142 17.4271 18.2445ZM15.8639 20.913C15.7128 21.0125 15.5888 21.0939 15.5827 21.0969C15.5767 21.0999 15.61 21.1783 15.6583 21.2718C15.7369 21.4316 15.746 21.4406 15.8549 21.4406C15.9395 21.4406 15.994 21.4647 16.0665 21.5281C16.1512 21.6034 16.1663 21.6366 16.1663 21.7542C16.1663 21.8537 16.1482 21.908 16.0998 21.9562L16.0333 22.0225L16.2117 22.3753L16.39 22.7281L16.5503 22.716C16.7589 22.698 16.9524 22.7944 17.0492 22.9663C17.1732 23.1804 17.1218 23.503 16.9464 23.6417L16.8738 23.699L17.0008 23.9493C17.0704 24.088 17.1308 24.2056 17.1369 24.2116C17.149 24.2267 17.4574 24.0488 17.7235 23.8709C18.5489 23.3251 19.2413 22.6316 19.7735 21.8235C19.8793 21.6607 19.9639 21.525 19.9579 21.519C19.9519 21.516 19.8097 21.4376 19.6434 21.3441C19.4046 21.2145 19.2836 21.1692 19.069 21.127C18.6638 21.0486 18.174 20.916 17.7204 20.7592C17.3395 20.6265 16.7831 20.3913 16.6531 20.3039C16.6017 20.2707 16.5715 20.2918 16.3659 20.4999C16.2389 20.6265 16.0121 20.8134 15.8639 20.913ZM10.7238 20.4727C10.0798 20.7652 9.18177 21.0426 8.571 21.1421C8.3926 21.1692 8.27166 21.2145 8.06303 21.326C7.91185 21.4074 7.77881 21.4858 7.76672 21.4979C7.73951 21.525 8.08117 22.0527 8.35027 22.3904C8.63752 22.7522 9.19991 23.292 9.58995 23.5844C9.78044 23.7261 9.95279 23.8528 9.97395 23.8618C9.99512 23.8739 10.0677 23.7895 10.1614 23.6417L10.3126 23.4005L10.237 23.2889C10.1433 23.1472 10.1221 23.0718 10.1402 22.8879C10.1584 22.713 10.2642 22.5562 10.4154 22.4839C10.5333 22.4296 10.7722 22.4206 10.8568 22.4658C10.9052 22.4899 10.9445 22.4477 11.135 22.1612L11.3557 21.8296L11.3043 21.7421C11.1622 21.5069 11.3467 21.2265 11.6188 21.2657C11.6974 21.2778 11.7216 21.2657 11.7942 21.1572C11.8395 21.0878 11.8879 21.0185 11.897 21.0004C11.9091 20.9793 11.8335 20.9009 11.7125 20.8134C11.6007 20.729 11.4283 20.5783 11.3285 20.4788C11.2287 20.3762 11.1411 20.2948 11.132 20.2948C11.1259 20.2948 10.9415 20.3762 10.7238 20.4727ZM11.8667 21.1783C11.776 21.326 11.773 21.3381 11.8214 21.3924C11.8546 21.4255 11.8728 21.4979 11.8728 21.5823C11.8728 21.6969 11.8577 21.7301 11.77 21.8085C11.6823 21.8869 11.649 21.8989 11.5432 21.8869L11.4162 21.8718L11.1985 22.2004L10.9778 22.5291L11.0534 22.6196C11.2741 22.8819 11.2076 23.2497 10.9052 23.4246C10.8115 23.4789 10.751 23.491 10.6331 23.4819C10.5484 23.4729 10.4608 23.4608 10.4335 23.4487C10.3973 23.4337 10.3459 23.4849 10.231 23.6658C10.1433 23.7955 10.0737 23.9101 10.0737 23.9191C10.0737 23.9493 10.5847 24.2327 10.9113 24.3865C11.3225 24.5764 12.0088 24.7996 12.4835 24.89C12.9068 24.9714 13.7474 25.0528 13.7837 25.0167C13.7958 25.0046 13.8109 24.8538 13.817 24.682C13.829 24.3865 13.823 24.3563 13.7172 24.0608C13.4602 23.3342 13.2183 22.1552 13.2183 21.6215C13.2183 21.4828 13.2122 21.4708 13.1336 21.4557C12.8978 21.4044 12.4503 21.2476 12.2507 21.1421C12.1268 21.0788 12.0088 21.0245 11.9937 21.0215C11.9756 21.0215 11.9212 21.0908 11.8667 21.1783ZM15.2925 21.2295C15.1806 21.2808 14.9659 21.3562 14.8147 21.3954C14.6636 21.4346 14.5366 21.4738 14.5305 21.4768C14.5245 21.4828 14.5063 21.6426 14.4882 21.8326C14.4156 22.5743 14.2493 23.3523 14.0286 23.9643C13.9137 24.293 13.9016 24.3473 13.8925 24.679L13.8805 25.0378L14.2372 25.0167C15.1352 24.9654 16.0091 24.7513 16.7892 24.3895C16.9373 24.3232 17.0583 24.2538 17.0583 24.2387C17.0583 24.2267 17.0038 24.1061 16.9403 23.9764L16.8194 23.7412L16.6561 23.7563C16.4505 23.7714 16.2751 23.69 16.1633 23.5211C16.0212 23.307 16.0665 22.9844 16.257 22.8336L16.3356 22.7703L16.1572 22.4145L15.9758 22.0587L15.8488 22.0557C15.743 22.0557 15.7037 22.0376 15.6341 21.9592C15.5283 21.8416 15.5223 21.721 15.61 21.5612L15.6734 21.4497L15.5948 21.2959C15.5495 21.2084 15.5102 21.1391 15.5041 21.1391C15.4981 21.1391 15.4043 21.1813 15.2925 21.2295Z" fill="#010101"/>
</svg>
