<svg width="121" height="208" viewBox="0 0 121 208" fill="none" xmlns="http://www.w3.org/2000/svg">
<path d="M56.1674 30.6553C55.973 30.6796 55.3168 30.7648 54.7092 30.8377C45.8257 31.932 37.6471 37.0024 32.5917 44.5654C29.9668 48.505 28.3869 52.5662 27.597 57.4177C27.3418 59.047 27.2325 63.3635 27.4147 65.1874C28.3505 74.5621 33.5639 83.2559 41.305 88.3506C41.9491 88.7762 42.739 89.2869 43.0549 89.4936C43.5653 89.8097 43.6626 89.9435 43.7962 90.4663C44.3917 92.7766 43.9542 95.8407 42.6175 98.6373L42.022 99.8897H41.5602C40.0168 99.9018 38.6679 101.726 39.2026 103.1C39.2512 103.233 39.2148 103.574 39.1054 103.878C38.9474 104.376 38.9474 104.486 39.1176 104.96C39.2998 105.446 39.2877 105.483 39.0689 105.556C38.7408 105.653 37.9995 106.322 37.9995 106.516C37.9995 106.614 38.121 106.65 38.3276 106.614C38.6193 106.577 38.5828 106.614 38.1697 106.82C37.477 107.173 35.1315 109.605 35.0343 110.079C34.9857 110.274 34.8399 110.541 34.6941 110.663C34.3659 110.967 34.1107 111.49 34.1107 111.854C34.1107 112.025 34.0014 112.341 33.8677 112.56C33.734 112.778 33.6246 113.058 33.6246 113.18C33.6246 113.301 33.5031 113.557 33.3573 113.763C33.175 114.006 33.0656 114.347 33.0413 114.76C33.0292 115.113 32.9563 115.94 32.8955 116.609C32.8347 117.277 32.8104 117.983 32.859 118.189C32.9076 118.384 32.9198 118.7 32.9076 118.882C32.8955 119.065 32.9563 119.332 33.0413 119.49C33.1264 119.648 33.1993 119.928 33.2115 120.135C33.2236 120.329 33.2965 120.876 33.3816 121.338C33.4545 121.788 33.5031 122.323 33.4788 122.518C33.4424 122.712 33.4302 122.871 33.4424 122.871C33.4424 122.871 33.7583 122.579 34.1229 122.226C34.5482 121.813 34.9614 121.533 35.3017 121.436C35.5933 121.338 35.8607 121.302 35.8972 121.326C35.9215 121.363 35.8972 121.594 35.8242 121.849C35.6906 122.36 35.5083 125.071 35.5447 126.153C35.5569 126.518 35.7027 127.369 35.885 128.038C36.0551 128.707 36.2374 129.607 36.286 130.044C36.3468 130.482 36.5169 131.139 36.6871 131.504C36.8572 131.868 37.0638 132.379 37.1367 132.622C37.2218 132.865 37.3554 133.133 37.4527 133.206C37.5499 133.279 37.7686 133.741 37.9509 134.215C38.3155 135.2 39.0568 136.051 39.6401 136.197C40.0654 136.306 41.1835 136.987 41.6939 137.449C42.0949 137.814 42.0949 137.802 41.4994 136.659C40.7824 135.285 40.5515 134.446 40.5515 133.291C40.5515 132.172 40.8675 130.725 41.3293 129.74C41.4873 129.4 41.6817 128.938 41.7546 128.707C41.8275 128.476 42.1435 127.819 42.4473 127.248C45.3396 121.91 45.7892 120.67 46.1538 117.217C46.324 115.599 46.2389 114.578 45.8622 113.447C45.7042 112.973 45.534 112.426 45.4854 112.231C45.4004 111.891 45.4125 111.879 45.5705 112.11C45.6677 112.243 45.8257 112.596 45.9108 112.9C46.1295 113.703 46.2632 113.763 46.2632 113.07C46.2632 111.198 45.3761 109.35 43.4438 107.197L42.1435 105.75L42.3987 105.252C42.5324 104.972 42.7997 104.668 42.9942 104.571C43.4074 104.352 43.8692 103.744 44.0636 103.185C44.2702 102.54 44.2216 101.932 43.9056 101.288L43.6018 100.704L44.0879 99.7438C45.2545 97.4335 45.8257 94.8923 45.7649 92.4118C45.7406 91.5728 45.7406 90.8919 45.7771 90.8919C45.8136 90.8919 46.2875 91.0743 46.8222 91.3053C48.9124 92.1808 51.8533 92.9833 54.2838 93.3359C54.855 93.421 55.3289 93.4939 55.3532 93.5061C55.3654 93.5183 55.2439 93.8101 55.0616 94.1505C54.296 95.6218 54.3932 97.4335 55.4869 101.957C55.8272 103.331 56.1431 104.814 56.2039 105.276L56.3133 106.091L55.7786 106.407C54.4661 107.173 54.1258 108.863 55.0373 110.116C55.256 110.407 55.4383 110.736 55.4383 110.833C55.4505 110.93 55.4626 111.137 55.4748 111.283C55.4869 111.441 55.6813 111.769 55.9122 112.012L56.3133 112.474L56.1674 113.204C56.0824 113.617 55.657 114.821 55.2196 115.879C53.9679 118.955 53.4939 120.694 52.8984 124.451C52.2544 128.427 52.1693 129.619 52.1571 133.875C52.1571 138.179 52.2665 139.516 52.8984 142.69C53.5061 145.754 54.7092 149.438 55.9365 152.004C56.1674 152.478 56.3497 152.904 56.3497 152.94C56.3497 153.037 58.4035 156.819 58.999 157.828C60.0562 159.628 61.1986 161.464 62.0857 162.777C62.6082 163.555 63.0336 164.248 63.0336 164.321C63.0336 164.382 63.0822 164.455 63.1308 164.479C63.1916 164.491 63.6047 165.063 64.0544 165.732C64.504 166.4 65.0023 167.106 65.1724 167.3C65.7679 167.969 67.4449 170.607 68.089 171.896C69.2921 174.292 69.7296 176.091 69.4744 177.562C69.4015 178.012 69.2678 178.45 69.1949 178.547C68.9397 178.851 69.7417 178.584 70.0091 178.28C70.6289 177.562 72.0142 173.878 72.2694 172.298C72.3424 171.823 72.3667 171.203 72.3302 170.899C72.2694 170.486 72.3181 170.182 72.5003 169.708C72.6462 169.355 72.7555 168.808 72.7555 168.492C72.7555 168.127 72.8649 167.701 73.0351 167.361C73.2659 166.899 73.3024 166.619 73.3146 165.428C73.3146 164.175 73.3632 163.944 73.6548 163.239C73.9708 162.522 73.9951 162.364 73.9222 161.476C73.8857 160.941 73.8493 160.442 73.8493 160.382C73.8371 160.309 73.8979 159.956 73.9829 159.591C74.068 159.166 74.0923 158.521 74.0316 157.828C73.9829 157.22 73.9343 156.102 73.91 155.336C73.8857 154.314 73.8128 153.718 73.6184 153.123C73.4118 152.478 73.351 151.931 73.3146 150.569C73.3024 149.609 73.2173 148.672 73.1444 148.49C73.0472 148.271 73.0229 147.736 73.0715 146.909C73.1566 145.511 72.95 144.088 72.4517 142.714C72.2208 142.082 72.1844 141.802 72.2573 141.462C72.3788 140.951 72.1479 139.188 71.8684 138.544C71.7712 138.301 71.6497 137.814 71.6011 137.449C71.4795 136.452 71.2122 135.504 70.8233 134.653C70.641 134.227 70.3858 133.607 70.2643 133.291C70.1549 132.975 69.8754 132.428 69.6445 132.087C69.4136 131.759 69.2313 131.382 69.2313 131.273C69.2313 131.163 69.1463 130.956 69.049 130.823C68.9518 130.701 68.8789 130.458 68.8668 130.288C68.8668 130.117 68.7695 129.631 68.6359 129.193C68.5022 128.756 68.3442 128.123 68.2591 127.795C68.1741 127.394 67.846 126.774 67.3112 125.983C66.8616 125.327 66.3026 124.451 66.0717 124.026C65.8408 123.612 65.5248 123.114 65.379 122.907C65.2332 122.712 64.9172 122.165 64.6742 121.715C64.4433 121.253 64.0301 120.597 63.7749 120.256C63.1916 119.49 62.8391 118.627 62.7298 117.788C62.5596 116.256 61.5753 114.383 59.9955 112.608L59.0476 111.526L59.0719 110.845C59.084 110.456 59.1934 109.982 59.3271 109.739C59.8375 108.79 59.4972 107.319 58.6101 106.638C58.2212 106.346 58.1969 106.273 58.0632 105.203C57.9782 104.595 57.5893 102.796 57.1883 101.227C56.131 97.0444 56.0945 95.6948 57.0303 94.6612C57.65 93.9803 58.5007 93.6885 59.8861 93.6885C62.3773 93.6885 65.9137 93.0562 68.7817 92.0956C69.7903 91.7673 70.641 91.5363 70.6775 91.5971C70.7139 91.6458 70.9205 91.9376 71.1271 92.2294C72.391 94.0411 73.2659 97.1174 73.4482 100.315L73.509 101.653L73.0594 101.896C71.8563 102.528 71.516 104.255 72.3424 105.519C72.5733 105.86 72.634 106.079 72.5733 106.334C72.4639 106.833 72.6948 107.526 73.108 107.963L73.4604 108.34L72.4274 110.894C70.0212 116.852 69.523 120.317 70.398 125.047C70.6289 126.287 71.1636 128.123 71.674 129.4C72.1236 130.555 73.7399 133.862 73.8736 133.911C73.9586 133.948 74.9187 135.443 75.4412 136.343C75.5385 136.525 75.7694 136.829 75.9516 137.036C76.5593 137.705 79.804 141.875 82.0036 144.794C84.1302 147.627 84.908 148.915 85.1267 149.925C85.1754 150.18 85.2726 150.411 85.3455 150.435C85.5278 150.496 85.8437 149.706 86.0139 148.77C86.0989 148.332 86.2934 147.748 86.4392 147.456C86.585 147.177 86.7552 146.63 86.7916 146.24C86.8402 145.864 86.9496 145.377 87.0347 145.183C87.1197 144.976 87.3749 144.295 87.5815 143.663C87.9704 142.544 87.9826 142.435 87.9826 140.501C87.9947 136.866 87.6058 134.106 86.9253 133.121C86.7066 132.792 86.4271 132.16 86.3055 131.698C86.184 131.236 85.9531 130.713 85.8073 130.531C85.6493 130.361 85.4427 129.971 85.3212 129.667C85.0781 129.047 84.7743 128.561 84.2882 128.038C84.1059 127.831 83.9236 127.479 83.875 127.248C83.7414 126.591 83.1337 125.521 82.4654 124.78C82.1372 124.415 81.8699 124.05 81.8699 123.977C81.8699 123.734 81.1286 122.348 80.7032 121.788C80.4724 121.497 80.2901 121.168 80.2901 121.059C80.2901 120.949 80.0713 120.414 79.804 119.855C79.5366 119.308 79.3179 118.785 79.3179 118.7C79.3179 118.615 79.1477 118.287 78.9533 117.958C78.6495 117.484 78.6009 117.326 78.6859 116.998L78.7953 116.609L79.0019 117.034C79.1234 117.265 79.3786 117.618 79.5609 117.824C79.7675 118.055 79.9376 118.445 80.0349 118.882C80.1199 119.259 80.3387 119.806 80.5331 120.098C80.7276 120.39 80.8977 120.743 80.8977 120.889C80.8977 121.314 81.3352 122.348 81.7119 122.846C81.8942 123.089 82.1737 123.539 82.3195 123.843C82.5747 124.354 83.0487 124.974 84.1181 126.214C84.349 126.482 84.7379 126.932 84.9809 127.211C85.224 127.491 86.0017 128.099 86.7066 128.537C87.4236 128.987 88.2013 129.534 88.4322 129.753C88.8211 130.117 89.854 130.652 90.1579 130.652C90.2186 130.652 90.4252 130.762 90.6075 130.896C90.8019 131.017 91.2151 131.187 91.5432 131.26C91.8714 131.333 92.3818 131.516 92.6856 131.674C93.4755 132.087 93.8765 132.136 94.63 131.929C94.9945 131.82 95.8331 131.613 96.4893 131.467C97.1455 131.309 97.6438 131.151 97.5952 131.102C97.5466 131.054 97.4129 131.017 97.2913 131.017C96.9389 131.017 95.0431 130.203 94.4598 129.813C93.6213 129.23 92.88 128.306 92.2116 127.017C91.8714 126.348 91.5918 125.74 91.5918 125.655C91.5918 125.57 91.4825 125.278 91.3488 125.011C91.2273 124.731 90.8384 123.527 90.4981 122.323C89.3315 118.177 88.6874 116.584 87.4965 114.821C86.1111 112.742 84.9809 111.599 83.632 110.918C83.3039 110.748 82.8664 110.48 82.6598 110.347C82.3195 110.103 82.3195 110.091 82.599 110.164C82.7692 110.213 83.1459 110.383 83.4376 110.541C83.7292 110.699 83.9966 110.809 84.0209 110.784C84.1181 110.699 83.0973 109.739 82.514 109.374C81.2987 108.596 78.6738 108.036 76.3041 108.036C75.9516 108.036 75.6721 108.012 75.6721 107.976C75.6721 107.951 75.7937 107.696 75.9273 107.428C76.1339 107.039 76.1704 106.808 76.1096 106.371C76.0489 105.896 76.0853 105.775 76.3405 105.459C76.7294 104.997 76.9238 104.231 76.8266 103.586C76.7537 103.063 76.2919 102.261 75.9273 101.993C75.3076 101.543 75.3197 101.568 75.186 100.072C74.8579 96.4 74.068 93.6277 72.7555 91.5363C72.4882 91.1108 72.2694 90.7338 72.2694 90.7217C72.2694 90.6973 72.8528 90.3569 73.5698 89.9678C76.5228 88.3506 79.0627 86.4173 81.4081 83.9855C85.7222 79.4987 88.5902 73.9298 89.6961 67.8624C91.3002 59.1321 89.21 50.2438 83.8872 43.1428C82.6719 41.5256 80.1442 38.8992 78.528 37.5982C75.9273 35.5068 72.4396 33.5249 69.4136 32.4306C67.8216 31.8469 65.0387 31.1538 63.2766 30.8863C62.0735 30.6918 57.0303 30.5337 56.1674 30.6553ZM58.6587 34.8989C58.6587 36.0783 58.6222 36.285 58.1726 37.6104C57.2612 40.2246 56.5077 43.6413 56.289 46.0853C56.131 47.9578 56.131 47.9457 55.7057 48.0308C54.8428 48.201 53.3116 48.7603 52.303 49.2589C51.7075 49.5507 51.2092 49.7939 51.1849 49.7939C51.1606 49.7939 50.9662 49.5142 50.7596 49.1616C50.3829 48.5536 50.3829 48.5172 50.5652 48.201C51.112 47.2648 50.4922 46.2312 49.3864 46.2434L48.876 46.2555L48.0131 44.9545L47.1503 43.6535L47.5149 43.1914C48.2197 42.3281 48.0375 40.8447 47.1503 40.2124C46.6278 39.8477 45.9229 39.6896 45.3518 39.8233C45.0844 39.8841 44.8292 39.9449 44.7927 39.9449C44.732 39.9449 44.4282 39.5194 43.6747 38.3521L43.4681 38.0359L44.7806 37.2942C47.8673 35.5433 51.6346 34.2788 54.9522 33.8775C55.5598 33.8045 56.1796 33.7194 56.3497 33.6951C56.5199 33.6708 57.1032 33.6465 57.6622 33.6343L58.6587 33.6222V34.8989ZM63.0336 33.9383C64.5891 34.1693 67.1047 34.8016 68.49 35.3123C69.766 35.7865 71.6861 36.6741 71.6375 36.7714C71.6132 36.8079 71.3702 37.2942 71.0907 37.8414L70.5803 38.8384L70.1428 38.7169C69.3407 38.4858 68.247 39.0087 67.8338 39.8355C67.6151 40.2368 67.5908 41.3068 67.7852 41.6837C67.8581 41.8296 68.089 42.1214 68.2834 42.3281L68.6359 42.7051L67.931 44.1277L67.2262 45.5382H66.7644C66.2054 45.5382 65.78 45.7935 65.5856 46.2677C65.4033 46.7176 65.5127 47.3863 65.8286 47.666C66.0595 47.8727 66.0595 47.8849 65.7071 48.5901L65.3425 49.2953L64.5526 48.9306C64.1151 48.736 63.228 48.4199 62.5718 48.2375L61.393 47.897L61.2958 46.6203C61.1135 44.0547 60.3236 40.2975 59.4486 37.7684C59.1205 36.8079 59.0354 36.3458 58.9625 35.0934L58.8653 33.5857L60.3114 33.6708C61.1013 33.7073 62.3287 33.8289 63.0336 33.9383ZM73.3146 37.659C76.2676 39.4099 79.4029 42.243 81.3959 44.9302C82.6598 46.6325 83.3525 47.7511 83.231 47.8606C83.1823 47.9092 82.7084 48.201 82.1615 48.4928C81.3716 48.9427 80.9341 49.0886 79.7918 49.2953C76.8874 49.8425 73.6062 50.9004 71.0542 52.1163L69.7296 52.7485L68.5873 51.6542C67.9553 51.0584 67.0196 50.3046 66.5213 49.9763L65.5977 49.3926L65.938 48.7239C66.254 48.0916 66.2904 48.0673 66.8008 48.0429C67.214 48.0186 67.3963 47.9335 67.6637 47.6295C68.089 47.1553 68.1133 46.669 67.7609 46.0367L67.5057 45.5746L68.1741 44.2371L68.8425 42.9118H69.6202C70.2157 42.9239 70.483 42.8631 70.8355 42.6443C72.0142 41.9147 72.2208 40.2611 71.2486 39.3005L70.8476 38.9114L71.3459 37.9022C71.6132 37.355 71.8927 36.9051 71.9535 36.9051C72.0142 36.9051 72.6219 37.2456 73.3146 37.659ZM43.8327 39.1181C44.1365 39.6045 44.3917 40.03 44.416 40.0908C44.4403 40.1395 44.3066 40.3827 44.1122 40.6258C43.8206 41.0149 43.7719 41.1852 43.7719 41.8904C43.7719 42.5835 43.8206 42.7659 44.1122 43.1428C44.6834 43.8967 45.5584 44.1763 46.567 43.9331C46.9194 43.8359 46.9559 43.8723 47.7944 45.1491L48.6572 46.4501L48.4263 46.8149C48.1468 47.2891 48.1468 47.6903 48.4506 48.1767C48.6937 48.5901 49.2892 48.8333 49.8117 48.736C50.0669 48.6874 50.1763 48.7725 50.4922 49.2832C50.711 49.6115 50.8811 49.9155 50.8811 49.9519C50.8811 49.9884 50.6259 50.2073 50.31 50.4261C49.9818 50.645 49.277 51.253 48.7301 51.7758L47.7458 52.7242L46.7857 52.25C44.4646 51.0827 41.0862 49.9641 37.9509 49.3197C36.7235 49.0765 35.9336 48.8333 35.1802 48.4807C34.5847 48.201 34.1107 47.9335 34.1107 47.8727C34.1107 47.6782 35.7635 45.2707 36.6263 44.2006C37.635 42.9482 39.4457 41.1122 40.6731 40.1152C41.6088 39.3491 43.1157 38.2548 43.2251 38.2548C43.2615 38.2548 43.5289 38.6439 43.8327 39.1181ZM84.3611 49.6966C85.6493 52.3959 86.5243 55.2533 86.901 58.0013C87.1805 60.0684 87.2048 60.5061 87.0468 60.5547C86.9739 60.5791 86.4514 60.6277 85.8802 60.6763L84.8472 60.7493L84.5677 60.1292C83.7414 58.3296 80.8855 58.6093 80.5696 60.5304L80.5088 60.9438L79.5852 61.0289C79.087 61.0654 78.3578 61.1019 77.9568 61.1019C77.3127 61.1019 77.2398 61.0776 77.1061 60.7858C76.936 60.4088 76.4256 60.1292 75.903 60.1292C75.4898 60.1292 74.6999 60.7979 74.6999 61.1505C74.6999 61.3086 74.5541 61.3451 73.9343 61.3451H73.1687L73.0229 60.2751C72.95 59.6914 72.792 58.8889 72.6826 58.4877C72.5733 58.0864 72.4639 57.6487 72.4274 57.5149C72.391 57.3204 72.5976 57.1137 73.4482 56.5179C75.8787 54.8034 78.3578 52.5662 80.1807 50.4505C81.0314 49.4656 81.2987 49.2345 82.2709 48.7117C82.8907 48.3712 83.4376 48.0916 83.4862 48.0916C83.5469 48.0916 83.9358 48.8211 84.3611 49.6966ZM35.2409 48.809C36.3711 49.344 36.5412 49.4777 37.1853 50.2438C38.7773 52.1771 41.9491 55.0588 44.173 56.5665C44.7198 56.9435 45.1695 57.2961 45.1695 57.3569C45.1695 57.4055 45.0358 57.904 44.8778 58.4755C44.6226 59.351 44.2702 61.9409 44.3553 62.3543C44.3674 62.4516 44.1122 62.5124 43.5897 62.5245C42.824 62.561 42.7876 62.5488 42.5567 62.1719C41.9855 61.26 40.8067 61.3329 40.3085 62.3057L40.0654 62.8042H39.1783C38.7044 62.8042 38.0238 62.8407 37.6714 62.8771L37.0395 62.9623L36.845 62.488C36.4562 61.5518 35.8121 61.1019 34.8399 61.1019C33.8191 61.1019 33.0535 61.6855 32.7618 62.6826C32.6403 63.0838 32.5552 63.169 32.3 63.169C32.1299 63.169 31.6195 63.2054 31.1698 63.2541L30.3435 63.327V61.6734C30.3435 58.0013 31.182 54.1347 32.774 50.5113C33.2479 49.4413 33.8798 48.2132 33.9649 48.2132C33.9892 48.2132 34.5604 48.4807 35.2409 48.809ZM87.217 62.2935C87.217 65.8683 86.4149 69.7592 84.9566 73.2368C84.5191 74.2824 83.6806 75.9726 83.5105 76.155C83.4862 76.1793 82.9515 75.9118 82.3074 75.5592C81.3352 75.0242 81.0192 74.7688 80.4237 74.0636C79.5002 72.9571 76.9846 70.4645 75.7329 69.4309C75.1982 68.9932 74.2017 68.2393 73.5333 67.7651L72.2938 66.9018L72.5246 66.2209C72.8528 65.2725 73.1201 63.6675 73.1201 62.6218V61.7342L73.8371 61.6491C74.5906 61.5639 74.8215 61.6126 74.8215 61.8801C74.8215 61.9652 74.9673 62.1597 75.1374 62.33C75.3683 62.5488 75.5871 62.6218 76.0002 62.6218C76.462 62.6218 76.5957 62.561 76.8995 62.2205C77.094 62.0017 77.252 61.7463 77.252 61.6612C77.252 61.4788 77.7381 61.4059 79.646 61.3086L80.521 61.26L80.5939 61.6126C80.7519 62.3178 81.8091 63.1568 82.5383 63.169C83.5226 63.169 84.6042 62.3421 84.7379 61.4667L84.8108 60.9925L85.8073 60.9438C86.342 60.9317 86.8888 60.8952 87.0104 60.883C87.1927 60.8587 87.217 60.9925 87.217 62.2935ZM44.416 63.2906C44.4768 64.1052 44.6955 65.2968 44.9507 66.1358C45.1695 66.8532 45.1816 66.9869 45.0236 67.0721C44.6105 67.3031 42.8484 68.6041 41.7668 69.4796C40.3814 70.5982 37.9509 72.9936 36.9787 74.2095C36.3954 74.9269 36.0916 75.1822 35.2652 75.6321C34.7184 75.9361 34.208 76.1793 34.135 76.1793C33.8312 76.1793 32.5188 73.3584 31.7289 71.0116C30.9754 68.75 30.1612 64.3119 30.3921 63.7161C30.4407 63.5702 30.6959 63.5337 31.5587 63.5337H32.6524L32.8347 63.9836C33.0899 64.5916 33.3451 64.8591 33.9285 65.1266C34.5725 65.4184 35.1315 65.4184 35.7756 65.1023C36.3832 64.8105 36.7721 64.3119 36.8693 63.7161C36.9544 63.2054 36.9423 63.2054 38.8259 63.1082L40.187 63.0474L40.3085 63.3513C40.4786 63.8012 41.1349 64.166 41.6453 64.0931C42.0827 64.0323 42.739 63.4486 42.739 63.1203C42.739 62.9136 43.0914 62.8285 43.8327 62.8528C44.3674 62.865 44.3796 62.8771 44.416 63.2906ZM50.6988 74.0514C51.3065 74.4527 51.8047 74.781 51.829 74.7931C51.8533 74.8053 51.7196 75.1214 51.5252 75.4984C51.2092 76.1428 51.1728 76.1793 50.7353 76.1793C50.395 76.1793 50.1763 76.2766 49.8846 76.5319C49.5444 76.8359 49.4836 76.9696 49.4836 77.4438C49.4836 77.8451 49.5565 78.064 49.7509 78.2585L50.0183 78.526L49.3013 79.9486L48.5843 81.3712L47.9402 81.3226C47.1017 81.2497 46.324 81.6388 45.9351 82.3318C45.4368 83.1951 45.6434 84.4962 46.3483 85.0555L46.6399 85.2865L46.1295 86.2957C45.85 86.855 45.607 87.3292 45.5827 87.3536C45.534 87.4144 44.2945 86.697 43.2251 85.9796C39.9075 83.7788 37.1245 80.9822 34.9857 77.7235C34.5604 77.0669 34.2201 76.5197 34.2444 76.4954C34.2687 76.4833 34.8399 76.1671 35.5083 75.7902C36.4683 75.2673 36.9544 75.085 37.8172 74.9147C39.4457 74.5986 41.4144 74.0636 43.2372 73.4313C44.7684 72.8963 47.0045 71.9479 47.527 71.5953C47.7336 71.4615 47.8552 71.5466 48.6815 72.3856C49.1919 72.8963 50.1034 73.6502 50.6988 74.0514ZM71.358 72.2762C73.9465 73.4556 77.5558 74.5743 80.0106 74.9755C80.7276 75.085 81.2137 75.2673 82.0522 75.7172C82.6598 76.0455 83.1945 76.3617 83.2431 76.4103C83.3525 76.5197 81.9793 78.6476 80.8977 80.0094C79.7432 81.4685 77.4828 83.645 75.9152 84.8245C75.1496 85.3959 74.4569 85.9066 74.3718 85.9431C74.2868 85.9917 73.9951 85.6513 73.6184 85.0555L73.0107 84.0827L73.3146 83.6329C73.6913 83.0614 73.7764 82.7574 73.7034 82.0157C73.6305 81.3105 73.2052 80.6782 72.5976 80.3864C72.1236 80.1675 71.1636 80.131 70.8233 80.3134C70.6289 80.4107 70.4709 80.2404 69.7053 79.0853L68.8181 77.7478L69.0247 77.3952C69.5959 76.4468 68.8546 75.316 67.7609 75.474C67.4449 75.5227 67.3477 75.474 67.056 75.0363C66.8738 74.7567 66.6793 74.477 66.6429 74.404C66.5943 74.3189 66.8981 74.0028 67.3842 73.6502C67.8338 73.3097 68.5265 72.7018 68.9275 72.3005C69.3286 71.8871 69.681 71.5588 69.7174 71.5588C69.7417 71.5588 70.483 71.8871 71.358 72.2762ZM66.7644 75.1214C67.129 75.7172 67.1411 75.7659 66.9467 75.9847C66.813 76.1185 66.7401 76.4103 66.7401 76.7508C66.7401 77.2128 66.8008 77.3466 67.1533 77.6627C67.5057 77.9788 67.6394 78.0275 68.0647 77.9788L68.5751 77.918L69.4501 79.2434L70.3372 80.5687L70.0334 80.9335C69.1463 81.9914 69.4136 83.4748 70.6289 84.18C71.0056 84.3989 71.2486 84.4475 71.7226 84.411C72.0629 84.3746 72.4153 84.3259 72.5246 84.2773C72.6705 84.2165 72.8771 84.4232 73.3389 85.1528C73.6913 85.6756 73.9708 86.1376 73.9708 86.1741C73.9708 86.2957 71.917 87.4387 70.6046 88.0588C68.9518 88.8248 66.1932 89.7246 64.2853 90.0894C62.5839 90.4177 59.2056 90.746 59.0597 90.6001C59.0111 90.5514 58.9504 89.9435 58.9261 89.2504C58.8774 88.0588 58.9017 87.9372 59.3271 86.7456C60.36 83.8152 61.3322 79.061 61.3322 76.9088C61.3322 76.3495 61.3565 76.3009 61.6725 76.2401C62.6204 76.0334 64.419 75.4011 65.221 74.9755C65.7193 74.7202 66.1932 74.5013 66.254 74.4892C66.3269 74.4892 66.5456 74.7688 66.7644 75.1214ZM52.9957 75.3281C53.4453 75.5348 54.3081 75.8388 54.9157 75.9969C55.5234 76.155 56.0338 76.313 56.0581 76.3252C56.0824 76.3495 56.1553 76.9939 56.2282 77.76C56.5199 80.7511 57.1883 83.8882 58.0754 86.3565C58.5372 87.6819 58.5858 87.9007 58.6222 89.2382L58.6709 90.6852L57.2369 90.6001C53.6276 90.3934 50.1155 89.5301 46.9802 88.071C46.3847 87.8035 45.8986 87.5238 45.8986 87.463C45.8986 87.4144 46.1174 86.928 46.3726 86.4051L46.8587 85.4567L47.5149 85.5175C48.3413 85.5783 49.0461 85.25 49.4957 84.5691C50.0669 83.7058 49.8846 82.4048 49.119 81.7968L48.8031 81.5415L49.5201 80.1067L50.2492 78.6719L50.7596 78.6598C51.1849 78.6598 51.3429 78.5868 51.6224 78.2707C52.0478 77.7965 52.0721 77.3101 51.7196 76.6656L51.4644 76.2158L51.7804 75.5956C51.9627 75.243 52.1207 74.9634 52.145 74.9634C52.1693 74.9634 52.546 75.1336 52.9957 75.3281Z" fill="#010101"/>
<path d="M111.527 195.271H9.70316C8.50918 195.271 7.54102 194.303 7.54102 193.109V15.4078C7.54102 14.2138 8.50918 13.2457 9.70316 13.2457H111.527C112.721 13.2457 113.689 14.2138 113.689 15.4078V193.109C113.689 194.303 112.721 195.271 111.527 195.271ZM11.8653 190.947H109.365V17.57H11.8653V190.947Z" fill="#010101"/>
<path d="M104.347 184.373H16.7392C15.7119 184.373 14.8789 183.52 14.8789 182.469V26.0333C14.8789 24.9822 15.7119 24.1299 16.7392 24.1299H104.347C105.375 24.1299 106.208 24.9822 106.208 26.0333V182.469C106.208 183.52 105.375 184.373 104.347 184.373ZM18.5995 180.566H102.487V27.9367H18.5995V180.566Z" fill="#010101"/>
<path d="M118.452 0.532227C117.258 0.532227 116.29 1.50039 116.29 2.69437V6.06443H113.385V2.69437C113.385 1.50039 112.416 0.532227 111.222 0.532227C110.028 0.532227 109.06 1.50039 109.06 2.69437V6.06443H106.155V2.69437C106.155 1.50039 105.187 0.532227 103.993 0.532227C102.799 0.532227 101.831 1.50039 101.831 2.69437V6.06443H98.9251V2.69437C98.9251 1.50039 97.9569 0.532227 96.7629 0.532227C95.5689 0.532227 94.6008 1.50039 94.6008 2.69437V6.06443H91.6953V2.69437C91.6953 1.50039 90.7272 0.532227 89.5332 0.532227C88.3392 0.532227 87.3711 1.50039 87.3711 2.69437V6.06443H84.4656V2.69437C84.4656 1.50039 83.4975 0.532227 82.3035 0.532227C81.1095 0.532227 80.1413 1.50039 80.1413 2.69437V6.06443H77.2359V2.69437C77.2359 1.50039 76.2677 0.532227 75.0737 0.532227C73.8798 0.532227 72.9116 1.50039 72.9116 2.69437V6.06443H70.0062V2.69437C70.0062 1.50039 69.038 0.532227 67.844 0.532227C66.65 0.532227 65.6819 1.50039 65.6819 2.69437V6.06443H62.7764V2.69437C62.7764 1.50039 61.8083 0.532227 60.6143 0.532227C59.4203 0.532227 58.4521 1.50039 58.4521 2.69437V6.06443H55.5467V2.69437C55.5467 1.50039 54.5785 0.532227 53.3845 0.532227C52.1906 0.532227 51.2224 1.50039 51.2224 2.69437V6.06443H48.317V2.69437C48.317 1.50039 47.3488 0.532227 46.1548 0.532227C44.9608 0.532227 43.9927 1.50039 43.9927 2.69437V6.06443H41.0872V2.69437C41.0872 1.50039 40.1191 0.532227 38.9251 0.532227C37.7311 0.532227 36.7629 1.50039 36.7629 2.69437V6.06443H33.8575V2.69437C33.8575 1.50039 32.8893 0.532227 31.6953 0.532227C30.5014 0.532227 29.5332 1.50039 29.5332 2.69437V6.06443H26.6278V2.69437C26.6278 1.50039 25.6596 0.532227 24.4656 0.532227C23.2716 0.532227 22.3035 1.50039 22.3035 2.69437V6.06443H19.399V2.69437C19.399 1.50039 18.4308 0.532227 17.2368 0.532227C16.0429 0.532227 15.0747 1.50039 15.0747 2.69437V6.06443H12.1693V2.69437C12.1693 1.50039 11.2011 0.532227 10.0071 0.532227C8.81313 0.532227 7.84497 1.50039 7.84497 2.69437V6.06443H4.93952V2.69437C4.93952 1.50039 3.97136 0.532227 2.77738 0.532227C1.58339 0.532227 0.615234 1.50039 0.615234 2.69437V205.822C0.615234 207.016 1.58339 207.984 2.77738 207.984C3.97136 207.984 4.93952 207.016 4.93952 205.822V202.452H7.84497V205.822C7.84497 207.016 8.81313 207.984 10.0071 207.984C11.2011 207.984 12.1693 207.016 12.1693 205.822V202.452H15.0747V205.822C15.0747 207.016 16.0429 207.984 17.2368 207.984C18.4308 207.984 19.399 207.016 19.399 205.822V202.452H22.3044V205.822C22.3044 207.016 23.2726 207.984 24.4666 207.984C25.6606 207.984 26.6287 207.016 26.6287 205.822V202.452H29.5342V205.822C29.5342 207.016 30.5023 207.984 31.6963 207.984C32.8903 207.984 33.8585 207.016 33.8585 205.822V202.452H36.7639V205.822C36.7639 207.016 37.7321 207.984 38.926 207.984C40.12 207.984 41.0882 207.016 41.0882 205.822V202.452H43.9936V205.822C43.9936 207.016 44.9618 207.984 46.1558 207.984C47.3498 207.984 48.3179 207.016 48.3179 205.822V202.452H51.2234V205.822C51.2234 207.016 52.1915 207.984 53.3855 207.984C54.5795 207.984 55.5477 207.016 55.5477 205.822V202.452H58.4531V205.822C58.4531 207.016 59.4213 207.984 60.6152 207.984C61.8092 207.984 62.7774 207.016 62.7774 205.822V202.452H65.6828V205.822C65.6828 207.016 66.651 207.984 67.845 207.984C69.039 207.984 70.0071 207.016 70.0071 205.822V202.452H72.9126V205.822C72.9126 207.016 73.8807 207.984 75.0747 207.984C76.2687 207.984 77.2368 207.016 77.2368 205.822V202.452H80.1423V205.822C80.1423 207.016 81.1105 207.984 82.3044 207.984C83.4984 207.984 84.4666 207.016 84.4666 205.822V202.452H87.372V205.822C87.372 207.016 88.3402 207.984 89.5342 207.984C90.7282 207.984 91.6963 207.016 91.6963 205.822V202.452H94.6018V205.822C94.6018 207.016 95.5699 207.984 96.7639 207.984C97.9579 207.984 98.926 207.016 98.926 205.822V202.452H101.831V205.822C101.831 207.016 102.8 207.984 103.994 207.984C105.188 207.984 106.156 207.016 106.156 205.822V202.452H109.061V205.822C109.061 207.016 110.029 207.984 111.223 207.984C112.417 207.984 113.386 207.016 113.386 205.822V202.452H116.291V205.822C116.291 207.016 117.259 207.984 118.453 207.984C119.647 207.984 120.615 207.016 120.615 205.822V2.69437C120.614 1.50039 119.646 0.532227 118.452 0.532227ZM4.93952 10.3887H116.29V198.128H4.93952V10.3887Z" fill="#010101"/>
</svg>
