<svg width="43" height="62" viewBox="0 0 43 62" fill="none" xmlns="http://www.w3.org/2000/svg">
<g clip-path="url(#clip0_1433_3061)">
<path d="M5.71552 58.4986C5.64319 58.4986 5.57085 58.4724 5.5132 58.4189C4.65781 57.6149 4.00054 56.6075 3.61268 55.5058C3.5718 55.3905 3.60639 55.2636 3.69864 55.1839C4.29196 54.6766 4.78989 54.0728 5.1788 53.3883C5.28048 53.208 5.37064 53.0318 5.44612 52.8673C5.49434 52.7624 5.59811 52.6954 5.71342 52.6943H5.71447C5.82978 52.6943 5.93356 52.7614 5.98178 52.8662C6.05935 53.0339 6.14741 53.2059 6.25119 53.3893C6.6401 54.0728 7.13802 54.6766 7.73135 55.1839C7.82359 55.2636 7.85819 55.3915 7.8173 55.5058C7.4284 56.6075 6.77113 57.6149 5.91679 58.4189C5.86018 58.4724 5.78785 58.4986 5.71552 58.4986ZM4.23746 55.4953C4.56661 56.3486 5.07293 57.1348 5.71552 57.792C6.35706 57.1358 6.86338 56.3496 7.19358 55.4963C6.61703 54.9743 6.12749 54.3642 5.73858 53.6807C5.73019 53.6671 5.72286 53.6524 5.71447 53.6388C5.70713 53.6524 5.69875 53.6661 5.69141 53.6797C5.3025 54.3621 4.814 54.9722 4.23746 55.4953Z" fill="#010101"/>
<path d="M38.1022 58.4693C38.0299 58.4693 37.9576 58.4431 37.8999 58.3896C37.0445 57.5856 36.3872 56.5782 35.9994 55.4765C35.9585 55.3612 35.9931 55.2344 36.0853 55.1547C36.6787 54.6473 37.1766 54.0435 37.5655 53.359C37.6672 53.1787 37.7573 53.0026 37.8328 52.838C37.881 52.7332 37.9848 52.6661 38.1001 52.665H38.1012C38.2165 52.665 38.3203 52.7321 38.3685 52.837C38.446 53.0047 38.5341 53.1766 38.6379 53.36C39.0268 54.0435 39.5247 54.6473 40.118 55.1547C40.2103 55.2344 40.2449 55.3622 40.204 55.4765C39.8151 56.5782 39.1578 57.5856 38.3035 58.3896C38.2469 58.4431 38.1745 58.4693 38.1022 58.4693ZM36.6242 55.466C36.9533 56.3193 37.4596 57.1055 38.1022 57.7628C38.7438 57.1066 39.2501 56.3204 39.5803 55.4671C39.0037 54.945 38.5142 54.3349 38.1253 53.6515C38.1169 53.6378 38.1096 53.6232 38.1012 53.6095C38.0938 53.6232 38.0854 53.6368 38.0781 53.6504C37.6892 54.3328 37.2007 54.9429 36.6242 55.466Z" fill="#010101"/>
<path d="M34.6806 8.40625H8.62695V9.9804H34.6806V8.40625Z" stroke="#010101" stroke-width="0.4"/>
<path d="M24.5071 8.37017C24.507 3.81399 19.1832 3.65605 19.1831 8.37016L24.5071 8.37017Z" fill="#010101"/>
<path d="M24.5071 8.37017C24.507 3.81399 19.1832 3.65605 19.1831 8.37016" stroke="#010101" stroke-width="0.4"/>
<path d="M10.0654 10.3428V34.0326" stroke="#010101" stroke-width="0.4"/>
<path d="M33.6587 10.1709V33.9573" stroke="#010101" stroke-width="0.4"/>
<path d="M21.8165 13.416L18.0884 16.0508L21.8405 18.7026L25.5686 16.0678L21.8165 13.416Z" fill="#010101" stroke="#010101" stroke-width="0.4"/>
<path d="M17.9614 16.0557V19.2749" stroke="#010101" stroke-width="0.4"/>
<path d="M25.854 16.0557V19.2749" stroke="#010101" stroke-width="0.4"/>
<path d="M21.8882 18.6885L22.006 21.9078" stroke="#010101" stroke-width="0.4"/>
<path d="M17.9204 19.1533L21.9649 21.7897" stroke="#010101" stroke-width="0.4"/>
<path d="M21.9141 21.7455L25.7835 19.1396" stroke="#010101" stroke-width="0.4"/>
<path d="M13.9195 13.416L10.1914 16.0508L13.9435 18.7026L17.6716 16.0678L13.9195 13.416Z" fill="#010101" stroke="#010101" stroke-width="0.4"/>
<path d="M10.0649 16.0557V19.2749" stroke="#010101" stroke-width="0.4"/>
<path d="M17.9575 16.0557V19.2749" stroke="#010101" stroke-width="0.4"/>
<path d="M13.9917 18.6885L14.1095 21.9078" stroke="#010101" stroke-width="0.4"/>
<path d="M10.0234 19.1533L14.0679 21.7897" stroke="#010101" stroke-width="0.4"/>
<path d="M14.0176 21.7455L17.8869 19.1396" stroke="#010101" stroke-width="0.4"/>
<path d="M29.7134 13.416L25.9854 16.0508L29.7375 18.7026L33.4656 16.0678L29.7134 13.416Z" fill="#010101" stroke="#010101" stroke-width="0.4"/>
<path d="M25.8584 16.0557V19.2749" stroke="#010101" stroke-width="0.4"/>
<path d="M33.751 16.0557V19.2749" stroke="#010101" stroke-width="0.4"/>
<path d="M29.7852 18.6885L29.903 21.9078" stroke="#010101" stroke-width="0.4"/>
<path d="M25.8169 19.1533L29.8614 21.7897" stroke="#010101" stroke-width="0.4"/>
<path d="M29.811 21.7455L33.6803 19.1396" stroke="#010101" stroke-width="0.4"/>
<path d="M25.8169 22.5391L30.0506 25.2989" stroke="#010101" stroke-width="0.4"/>
<path d="M29.8315 25.248L33.6528 22.5723" stroke="#010101" stroke-width="0.4"/>
<path d="M17.9199 22.5391L22.1537 25.2989" stroke="#010101" stroke-width="0.4"/>
<path d="M21.9136 25.2104L25.7829 22.6045" stroke="#010101" stroke-width="0.4"/>
<path d="M10.0234 22.6182L14.191 25.3348" stroke="#010101" stroke-width="0.4"/>
<path d="M14.0176 25.2104L17.887 22.6045" stroke="#010101" stroke-width="0.4"/>
<path d="M25.8169 24.1973L30.0506 26.9571" stroke="#010101" stroke-width="0.4"/>
<path d="M29.8105 26.8686L33.6799 24.2627" stroke="#010101" stroke-width="0.4"/>
<path d="M17.9199 24.1973L22.1537 26.9571" stroke="#010101" stroke-width="0.4"/>
<path d="M21.9136 26.8686L25.7829 24.2627" stroke="#010101" stroke-width="0.4"/>
<path d="M10.0234 24.2764L14.191 26.993" stroke="#010101" stroke-width="0.4"/>
<path d="M14.0171 26.8686L17.8864 24.2627" stroke="#010101" stroke-width="0.4"/>
<path d="M13.9741 10.1055V13.501" stroke="#010101" stroke-width="0.4"/>
<path d="M21.9102 10.1055V13.501" stroke="#010101" stroke-width="0.4"/>
<path d="M29.8066 10.1055V13.501" stroke="#010101" stroke-width="0.4"/>
<path d="M9.98584 33.8721L21.9097 42.8742" stroke="#010101" stroke-width="0.4"/>
<path d="M33.7863 33.9551L21.7515 43.046" stroke="#010101" stroke-width="0.4"/>
<path d="M12.5132 25.8984V44.8502" stroke="#010101" stroke-width="0.4"/>
<path d="M11.1704 25.0303V47.9305" stroke="#010101" stroke-width="0.4"/>
<path d="M14.0137 26.9248V41.0598" stroke="#010101" stroke-width="0.4"/>
<path d="M28.4644 25.9775V44.9293" stroke="#010101" stroke-width="0.4"/>
<path d="M27.1221 25.1094V48.0096" stroke="#010101" stroke-width="0.4"/>
<path d="M29.9253 26.9248V41.0598" stroke="#010101" stroke-width="0.4"/>
<path d="M20.6465 26.0566V45.0085" stroke="#010101" stroke-width="0.4"/>
<path d="M19.3833 25.125V48.0251" stroke="#010101" stroke-width="0.4"/>
<path d="M22.0679 26.9248V41.0598" stroke="#010101" stroke-width="0.4"/>
<path d="M22.0679 26.9248V58.5113" stroke="#010101" stroke-width="0.4"/>
<path d="M15.4351 26.0566V54.3265" stroke="#010101" stroke-width="0.4"/>
<path d="M15.4351 26.0566V54.3265" stroke="#010101" stroke-width="0.4"/>
<path d="M15.4351 26.0566V54.3265" stroke="#010101" stroke-width="0.4"/>
<path d="M15.4351 26.0566V54.3265" stroke="#010101" stroke-width="0.4"/>
<path d="M15.4351 26.0566V54.3265" stroke="#010101" stroke-width="0.4"/>
<path d="M18.041 24.3193V52.5892" stroke="#010101" stroke-width="0.4"/>
<path d="M18.041 24.3193V52.5892" stroke="#010101" stroke-width="0.4"/>
<path d="M18.041 24.3193V52.5892" stroke="#010101" stroke-width="0.4"/>
<path d="M18.041 24.3193V52.5892" stroke="#010101" stroke-width="0.4"/>
<path d="M18.041 24.3193V52.5892" stroke="#010101" stroke-width="0.4"/>
<path d="M16.7773 25.1094V53.3793" stroke="#010101" stroke-width="0.4"/>
<path d="M16.7773 25.1094V53.3793" stroke="#010101" stroke-width="0.4"/>
<path d="M16.7773 25.1094V53.3793" stroke="#010101" stroke-width="0.4"/>
<path d="M16.7773 25.1094V53.3793" stroke="#010101" stroke-width="0.4"/>
<path d="M16.7773 25.1094V53.3793" stroke="#010101" stroke-width="0.4"/>
<path d="M31.1489 26.1357V49.8255" stroke="#010101" stroke-width="0.4"/>
<path d="M31.1489 26.1357V49.8255" stroke="#010101" stroke-width="0.4"/>
<path d="M31.1489 26.1357V49.8255" stroke="#010101" stroke-width="0.4"/>
<path d="M31.1489 26.1357V49.8255" stroke="#010101" stroke-width="0.4"/>
<path d="M31.1489 26.1357V49.8255" stroke="#010101" stroke-width="0.4"/>
<path d="M32.4136 25.373V48.2732" stroke="#010101" stroke-width="0.4"/>
<path d="M32.4136 25.373V48.2732" stroke="#010101" stroke-width="0.4"/>
<path d="M32.4136 25.373V48.2732" stroke="#010101" stroke-width="0.4"/>
<path d="M32.4136 25.373V48.2732" stroke="#010101" stroke-width="0.4"/>
<path d="M32.4136 25.373V48.2732" stroke="#010101" stroke-width="0.4"/>
<path d="M23.3315 26.1357V54.4056" stroke="#010101" stroke-width="0.4"/>
<path d="M23.3315 26.1357V54.4056" stroke="#010101" stroke-width="0.4"/>
<path d="M23.3315 26.1357V54.4056" stroke="#010101" stroke-width="0.4"/>
<path d="M23.3315 26.1357V54.4056" stroke="#010101" stroke-width="0.4"/>
<path d="M23.3315 26.1357V54.4056" stroke="#010101" stroke-width="0.4"/>
<path d="M25.9375 24.3984V52.6683" stroke="#010101" stroke-width="0.4"/>
<path d="M25.9375 24.3984V52.6683" stroke="#010101" stroke-width="0.4"/>
<path d="M25.9375 24.3984V52.6683" stroke="#010101" stroke-width="0.4"/>
<path d="M25.9375 24.3984V52.6683" stroke="#010101" stroke-width="0.4"/>
<path d="M25.9375 24.3984V52.6683" stroke="#010101" stroke-width="0.4"/>
<path d="M24.6738 25.8369V54.1068" stroke="#010101" stroke-width="0.4"/>
<path d="M24.6738 25.8369V54.1068" stroke="#010101" stroke-width="0.4"/>
<path d="M24.6738 25.8369V54.1068" stroke="#010101" stroke-width="0.4"/>
<path d="M24.6738 25.8369V54.1068" stroke="#010101" stroke-width="0.4"/>
<path d="M24.6738 25.8369V54.1068" stroke="#010101" stroke-width="0.4"/>
<path d="M11.0893 49.7469C11.5908 49.7469 11.9974 49.3403 11.9974 48.8388C11.9974 48.3372 11.5908 47.9307 11.0893 47.9307C10.5877 47.9307 10.1812 48.3372 10.1812 48.8388C10.1812 49.3403 10.5877 49.7469 11.0893 49.7469Z" fill="#010101"/>
<path d="M15.3536 49.5461C15.7447 49.5461 16.0617 49.2291 16.0617 48.838C16.0617 48.4469 15.7447 48.1299 15.3536 48.1299C14.9625 48.1299 14.6455 48.4469 14.6455 48.838C14.6455 49.2291 14.9625 49.5461 15.3536 49.5461Z" stroke="#010101" stroke-width="0.4"/>
<path d="M21.9864 51.4416C22.3775 51.4416 22.6945 51.1246 22.6945 50.7335C22.6945 50.3424 22.3775 50.0254 21.9864 50.0254C21.5954 50.0254 21.2783 50.3424 21.2783 50.7335C21.2783 51.1246 21.5954 51.4416 21.9864 51.4416Z" stroke="#010101" stroke-width="0.4"/>
<path d="M28.3829 44.3352C28.774 44.3352 29.091 44.0181 29.091 43.6271C29.091 43.236 28.774 42.9189 28.3829 42.9189C27.9918 42.9189 27.6748 43.236 27.6748 43.6271C27.6748 44.0181 27.9918 44.3352 28.3829 44.3352Z" stroke="#010101" stroke-width="0.4"/>
<path d="M32.331 48.9568C32.8325 48.9568 33.2391 48.5503 33.2391 48.0487C33.2391 47.5472 32.8325 47.1406 32.331 47.1406C31.8294 47.1406 31.4229 47.5472 31.4229 48.0487C31.4229 48.5503 31.8294 48.9568 32.331 48.9568Z" fill="#010101"/>
<path d="M1 61H42.5319" stroke="#010101" stroke-width="2"/>
<path d="M1.66992 62V17.0254" stroke="#010101" stroke-width="2"/>
<path d="M41.8623 61.9997V17.0117" stroke="#010101" stroke-width="2"/>
<path d="M1.66992 17.1624C1.66992 17.1624 2.00195 1.00005 22.5874 1C43.1728 0.999951 41.8447 17.1624 41.8447 17.1624" stroke="#010101" stroke-width="2"/>
</g>
<defs>
<clipPath id="clip0_1433_3061">
<rect width="43" height="62" fill="white"/>
</clipPath>
</defs>
</svg>
