<svg width="30" height="36" viewBox="0 0 30 36" fill="none" xmlns="http://www.w3.org/2000/svg">
<path fill-rule="evenodd" clip-rule="evenodd" d="M11.75 4.5C11.75 3.14571 13.2426 1.75 15.5 1.75C17.7574 1.75 19.25 3.14571 19.25 4.5V7.65613H11.75V4.5ZM10.25 7.65613V4.5C10.25 1.9883 12.7868 0.25 15.5 0.25C18.2132 0.25 20.75 1.9883 20.75 4.5V7.65613H27C27.3919 7.65613 27.7177 7.95785 27.7478 8.3486L29.7478 34.3486C29.7638 34.5569 29.6922 34.7624 29.5503 34.9157C29.4084 35.069 29.2089 35.1561 29 35.1561H1C0.791094 35.1561 0.591653 35.069 0.44971 34.9157C0.307768 34.7624 0.236189 34.5569 0.252211 34.3486L2.25221 8.3486C2.28227 7.95785 2.6081 7.65613 3 7.65613H10.25ZM1.80991 33.6561L3.69453 9.15613H10.25V11.5C10.25 12.5864 11.0338 13.4123 11.9538 13.9234C12.8992 14.4486 14.1544 14.75 15.5 14.75C16.8456 14.75 18.1008 14.4486 19.0462 13.9234C19.9662 13.4123 20.75 12.5864 20.75 11.5V9.15613H26.3055L28.1901 33.6561H1.80991Z" fill="#010101"/>
</svg>
